<?xml version="1.0" encoding="utf-8" standalone="no"?>
<!DOCTYPE svg PUBLIC "-//W3C//DTD SVG 1.1//EN"
  "http://www.w3.org/Graphics/SVG/1.1/DTD/svg11.dtd">
<svg xmlns:xlink="http://www.w3.org/1999/xlink" width="403.056pt" height="262.46pt" viewBox="0 0 403.056 262.46" xmlns="http://www.w3.org/2000/svg" version="1.1">
 <metadata>
  <rdf:RDF xmlns:dc="http://purl.org/dc/elements/1.1/" xmlns:cc="http://creativecommons.org/ns#" xmlns:rdf="http://www.w3.org/1999/02/22-rdf-syntax-ns#">
   <cc:Work>
    <dc:type rdf:resource="http://purl.org/dc/dcmitype/StillImage"/>
    <dc:date>2026-02-21T13:59:02.990797</dc:date>
    <dc:format>image/svg+xml</dc:format>
    <dc:creator>
     <cc:Agent>
      <dc:title>Matplotlib v3.10.8, https://matplotlib.org/</dc:title>
     </cc:Agent>
    </dc:creator>
   </cc:Work>
  </rdf:RDF>
 </metadata>
 <defs>
  <style type="text/css">*{stroke-linejoin: round; stroke-linecap: butt}</style>
 </defs>
 <g id="figure_1">
  <g id="patch_1">
   <path d="M 0 262.46 
L 403.056 262.46 
L 403.056 0 
L 0 0 
L 0 262.46 
z
" style="fill: none"/>
  </g>
  <g id="axes_1">
   <g id="patch_2">
    <path d="M 93.72 214.18 
C 98.493656 214.18 103.072438 212.283406 106.447922 208.907922 
C 109.823406 205.532438 111.72 200.953656 111.72 196.18 
C 111.72 191.406344 109.823406 186.827562 106.447922 183.452078 
C 103.072438 180.076594 98.493656 178.18 93.72 178.18 
C 88.946344 178.18 84.367562 180.076594 80.992078 183.452078 
C 77.616594 186.827562 75.72 191.406344 75.72 196.18 
C 75.72 200.953656 77.616594 205.532438 80.992078 208.907922 
C 84.367562 212.283406 88.946344 214.18 93.72 214.18 
L 93.72 214.18 
z
" clip-path="url(#p7af31cb85c)" style="fill: none; stroke: #000000; stroke-width: 2; stroke-linejoin: miter"/>
   </g>
   <g id="patch_3">
    <path d="M 309.72 79.48 
L 300.72 92.08 
L 291.72 79.48 
L 309.72 79.48 
z
" clip-path="url(#p7af31cb85c)" style="fill: none; stroke: #000000; stroke-width: 2; stroke-linecap: round"/>
   </g>
   <g id="line2d_1">
    <path d="M 39.72 196.18 
L 75.72 196.18 
L 75.72 196.18 
M 111.72 196.18 
L 111.72 196.18 
L 147.72 196.18 
" clip-path="url(#p7af31cb85c)" style="fill: none; stroke: #000000; stroke-width: 2; stroke-linecap: round"/>
   </g>
   <g id="line2d_2">
    <path d="M 93.72 205.18 
L 95.583497 204.43 
L 97.32 203.68 
L 98.811169 202.93 
L 99.955383 202.18 
L 100.674666 201.43 
L 100.92 200.68 
L 100.674666 199.93 
L 99.955383 199.18 
L 98.811169 198.43 
L 97.32 197.68 
L 95.583497 196.93 
L 93.72 196.18 
L 91.856503 195.43 
L 90.12 194.68 
L 88.628831 193.93 
L 87.484617 193.18 
L 86.765334 192.43 
L 86.52 191.68 
L 86.765334 190.93 
L 87.484617 190.18 
L 88.628831 189.43 
L 90.12 188.68 
L 91.856503 187.93 
L 93.72 187.18 
" clip-path="url(#p7af31cb85c)" style="fill: none; stroke: #000000; stroke-width: 2; stroke-linecap: round"/>
   </g>
   <g id="line2d_3">
    <path d="M 147.72 196.18 
L 183.72 196.18 
L 186.72 187.18 
L 192.72 205.18 
L 198.72 187.18 
L 204.72 205.18 
L 210.72 187.18 
L 216.72 205.18 
L 219.72 196.18 
L 255.72 196.18 
" clip-path="url(#p7af31cb85c)" style="fill: none; stroke: #000000; stroke-width: 2; stroke-linecap: round"/>
   </g>
   <g id="line2d_4">
    <path d="M 255.72 196.18 
L 264.72 196.18 
L 273.72 196.18 
" clip-path="url(#p7af31cb85c)" style="fill: none; stroke: #000000; stroke-width: 2; stroke-linecap: round"/>
   </g>
   <g id="line2d_5">
    <path d="M 273.72 196.18 
L 273.72 201.58 
L 273.72 206.98 
" clip-path="url(#p7af31cb85c)" style="fill: none; stroke: #000000; stroke-width: 2; stroke-linecap: round"/>
   </g>
   <g id="line2d_6">
    <path d="M 300.72 157.78 
L 285.72 157.78 
L 285.72 181.78 
L 261.72 181.78 
L 261.72 157.78 
L 246.72 157.78 
" clip-path="url(#p7af31cb85c)" style="fill: none; stroke: #000000; stroke-width: 2; stroke-linecap: round"/>
   </g>
   <g id="line2d_7">
    <path d="M 285.72 187.78 
L 261.72 187.78 
" clip-path="url(#p7af31cb85c)" style="fill: none; stroke: #000000; stroke-width: 2; stroke-linecap: round"/>
   </g>
   <g id="line2d_8">
    <path d="M 273.72 187.78 
L 273.72 206.98 
" clip-path="url(#p7af31cb85c)" style="fill: none; stroke: #000000; stroke-width: 2; stroke-linecap: round"/>
   </g>
   <g id="line2d_9">
    <path d="M 300.72 157.78 
L 300.72 148.78 
L 300.72 139.78 
" clip-path="url(#p7af31cb85c)" style="fill: none; stroke: #000000; stroke-width: 2; stroke-linecap: round"/>
   </g>
   <g id="line2d_10">
    <path d="M 300.72 139.78 
L 300.72 92.08 
M 309.72 92.08 
L 291.72 92.08 
M 300.72 79.48 
L 300.72 31.78 
" clip-path="url(#p7af31cb85c)" style="fill: none; stroke: #000000; stroke-width: 2; stroke-linecap: round"/>
   </g>
   <g id="line2d_11">
    <path d="M 277.721351 93.9078 
L 287.22 88.48 
" clip-path="url(#p7af31cb85c)" style="fill: none; stroke: #000000; stroke-width: 2; stroke-linecap: round"/>
   </g>
   <g id="patch_4">
    <path d="M 279.150231 96.40834 
L 271.47 97.48 
L 276.29247 91.407259 
z
" clip-path="url(#p7af31cb85c)"/>
   </g>
   <g id="line2d_12">
    <path d="M 277.721351 85.8078 
L 287.22 80.38 
" clip-path="url(#p7af31cb85c)" style="fill: none; stroke: #000000; stroke-width: 2; stroke-linecap: round"/>
   </g>
   <g id="patch_5">
    <path d="M 279.150231 88.30834 
L 271.47 89.38 
L 276.29247 83.307259 
z
" clip-path="url(#p7af31cb85c)"/>
   </g>
   <g id="line2d_13">
    <path d="M 300.72 31.78 
L 300.72 26.38 
L 300.72 20.98 
" clip-path="url(#p7af31cb85c)" style="fill: none; stroke: #000000; stroke-width: 2; stroke-linecap: round"/>
   </g>
   <g id="line2d_14">
    <path d="M 246.72 157.78 
L 246.72 163.18 
L 246.72 168.58 
" clip-path="url(#p7af31cb85c)" style="fill: none; stroke: #000000; stroke-width: 2; stroke-linecap: round"/>
   </g>
   <g id="line2d_15">
    <path d="M 246.72 168.58 
L 246.72 182.98 
L 237.72 182.98 
L 255.72 182.98 
M 240.42 187.3 
L 253.02 187.3 
M 244.92 191.62 
L 248.52 191.62 
" clip-path="url(#p7af31cb85c)" style="fill: none; stroke: #000000; stroke-width: 2; stroke-linecap: round"/>
   </g>
   <g id="text_1">
    <!-- LED Transmitter Driver -->
    <g transform="translate(83.063438 123.89125) scale(0.12 -0.12)">
     <defs>
      <path id="DejaVuSans-4c" d="M 628 4666 
L 1259 4666 
L 1259 531 
L 3531 531 
L 3531 0 
L 628 0 
L 628 4666 
z
" transform="scale(0.015625)"/>
      <path id="DejaVuSans-45" d="M 628 4666 
L 3578 4666 
L 3578 4134 
L 1259 4134 
L 1259 2753 
L 3481 2753 
L 3481 2222 
L 1259 2222 
L 1259 531 
L 3634 531 
L 3634 0 
L 628 0 
L 628 4666 
z
" transform="scale(0.015625)"/>
      <path id="DejaVuSans-44" d="M 1259 4147 
L 1259 519 
L 2022 519 
Q 2988 519 3436 956 
Q 3884 1394 3884 2338 
Q 3884 3275 3436 3711 
Q 2988 4147 2022 4147 
L 1259 4147 
z
M 628 4666 
L 1925 4666 
Q 3281 4666 3915 4102 
Q 4550 3538 4550 2338 
Q 4550 1131 3912 565 
Q 3275 0 1925 0 
L 628 0 
L 628 4666 
z
" transform="scale(0.015625)"/>
      <path id="DejaVuSans-20" transform="scale(0.015625)"/>
      <path id="DejaVuSans-54" d="M -19 4666 
L 3928 4666 
L 3928 4134 
L 2272 4134 
L 2272 0 
L 1638 0 
L 1638 4134 
L -19 4134 
L -19 4666 
z
" transform="scale(0.015625)"/>
      <path id="DejaVuSans-72" d="M 2631 2963 
Q 2534 3019 2420 3045 
Q 2306 3072 2169 3072 
Q 1681 3072 1420 2755 
Q 1159 2438 1159 1844 
L 1159 0 
L 581 0 
L 581 3500 
L 1159 3500 
L 1159 2956 
Q 1341 3275 1631 3429 
Q 1922 3584 2338 3584 
Q 2397 3584 2469 3576 
Q 2541 3569 2628 3553 
L 2631 2963 
z
" transform="scale(0.015625)"/>
      <path id="DejaVuSans-61" d="M 2194 1759 
Q 1497 1759 1228 1600 
Q 959 1441 959 1056 
Q 959 750 1161 570 
Q 1363 391 1709 391 
Q 2188 391 2477 730 
Q 2766 1069 2766 1631 
L 2766 1759 
L 2194 1759 
z
M 3341 1997 
L 3341 0 
L 2766 0 
L 2766 531 
Q 2569 213 2275 61 
Q 1981 -91 1556 -91 
Q 1019 -91 701 211 
Q 384 513 384 1019 
Q 384 1609 779 1909 
Q 1175 2209 1959 2209 
L 2766 2209 
L 2766 2266 
Q 2766 2663 2505 2880 
Q 2244 3097 1772 3097 
Q 1472 3097 1187 3025 
Q 903 2953 641 2809 
L 641 3341 
Q 956 3463 1253 3523 
Q 1550 3584 1831 3584 
Q 2591 3584 2966 3190 
Q 3341 2797 3341 1997 
z
" transform="scale(0.015625)"/>
      <path id="DejaVuSans-6e" d="M 3513 2113 
L 3513 0 
L 2938 0 
L 2938 2094 
Q 2938 2591 2744 2837 
Q 2550 3084 2163 3084 
Q 1697 3084 1428 2787 
Q 1159 2491 1159 1978 
L 1159 0 
L 581 0 
L 581 3500 
L 1159 3500 
L 1159 2956 
Q 1366 3272 1645 3428 
Q 1925 3584 2291 3584 
Q 2894 3584 3203 3211 
Q 3513 2838 3513 2113 
z
" transform="scale(0.015625)"/>
      <path id="DejaVuSans-73" d="M 2834 3397 
L 2834 2853 
Q 2591 2978 2328 3040 
Q 2066 3103 1784 3103 
Q 1356 3103 1142 2972 
Q 928 2841 928 2578 
Q 928 2378 1081 2264 
Q 1234 2150 1697 2047 
L 1894 2003 
Q 2506 1872 2764 1633 
Q 3022 1394 3022 966 
Q 3022 478 2636 193 
Q 2250 -91 1575 -91 
Q 1294 -91 989 -36 
Q 684 19 347 128 
L 347 722 
Q 666 556 975 473 
Q 1284 391 1588 391 
Q 1994 391 2212 530 
Q 2431 669 2431 922 
Q 2431 1156 2273 1281 
Q 2116 1406 1581 1522 
L 1381 1569 
Q 847 1681 609 1914 
Q 372 2147 372 2553 
Q 372 3047 722 3315 
Q 1072 3584 1716 3584 
Q 2034 3584 2315 3537 
Q 2597 3491 2834 3397 
z
" transform="scale(0.015625)"/>
      <path id="DejaVuSans-6d" d="M 3328 2828 
Q 3544 3216 3844 3400 
Q 4144 3584 4550 3584 
Q 5097 3584 5394 3201 
Q 5691 2819 5691 2113 
L 5691 0 
L 5113 0 
L 5113 2094 
Q 5113 2597 4934 2840 
Q 4756 3084 4391 3084 
Q 3944 3084 3684 2787 
Q 3425 2491 3425 1978 
L 3425 0 
L 2847 0 
L 2847 2094 
Q 2847 2600 2669 2842 
Q 2491 3084 2119 3084 
Q 1678 3084 1418 2786 
Q 1159 2488 1159 1978 
L 1159 0 
L 581 0 
L 581 3500 
L 1159 3500 
L 1159 2956 
Q 1356 3278 1631 3431 
Q 1906 3584 2284 3584 
Q 2666 3584 2933 3390 
Q 3200 3197 3328 2828 
z
" transform="scale(0.015625)"/>
      <path id="DejaVuSans-69" d="M 603 3500 
L 1178 3500 
L 1178 0 
L 603 0 
L 603 3500 
z
M 603 4863 
L 1178 4863 
L 1178 4134 
L 603 4134 
L 603 4863 
z
" transform="scale(0.015625)"/>
      <path id="DejaVuSans-74" d="M 1172 4494 
L 1172 3500 
L 2356 3500 
L 2356 3053 
L 1172 3053 
L 1172 1153 
Q 1172 725 1289 603 
Q 1406 481 1766 481 
L 2356 481 
L 2356 0 
L 1766 0 
Q 1100 0 847 248 
Q 594 497 594 1153 
L 594 3053 
L 172 3053 
L 172 3500 
L 594 3500 
L 594 4494 
L 1172 4494 
z
" transform="scale(0.015625)"/>
      <path id="DejaVuSans-65" d="M 3597 1894 
L 3597 1613 
L 953 1613 
Q 991 1019 1311 708 
Q 1631 397 2203 397 
Q 2534 397 2845 478 
Q 3156 559 3463 722 
L 3463 178 
Q 3153 47 2828 -22 
Q 2503 -91 2169 -91 
Q 1331 -91 842 396 
Q 353 884 353 1716 
Q 353 2575 817 3079 
Q 1281 3584 2069 3584 
Q 2775 3584 3186 3129 
Q 3597 2675 3597 1894 
z
M 3022 2063 
Q 3016 2534 2758 2815 
Q 2500 3097 2075 3097 
Q 1594 3097 1305 2825 
Q 1016 2553 972 2059 
L 3022 2063 
z
" transform="scale(0.015625)"/>
      <path id="DejaVuSans-76" d="M 191 3500 
L 800 3500 
L 1894 563 
L 2988 3500 
L 3597 3500 
L 2284 0 
L 1503 0 
L 191 3500 
z
" transform="scale(0.015625)"/>
     </defs>
     <use xlink:href="#DejaVuSans-4c"/>
     <use xlink:href="#DejaVuSans-45" transform="translate(55.712891 0)"/>
     <use xlink:href="#DejaVuSans-44" transform="translate(118.896484 0)"/>
     <use xlink:href="#DejaVuSans-20" transform="translate(195.898438 0)"/>
     <use xlink:href="#DejaVuSans-54" transform="translate(227.685547 0)"/>
     <use xlink:href="#DejaVuSans-72" transform="translate(274.019531 0)"/>
     <use xlink:href="#DejaVuSans-61" transform="translate(315.132812 0)"/>
     <use xlink:href="#DejaVuSans-6e" transform="translate(376.412109 0)"/>
     <use xlink:href="#DejaVuSans-73" transform="translate(439.791016 0)"/>
     <use xlink:href="#DejaVuSans-6d" transform="translate(491.890625 0)"/>
     <use xlink:href="#DejaVuSans-69" transform="translate(589.302734 0)"/>
     <use xlink:href="#DejaVuSans-74" transform="translate(617.085938 0)"/>
     <use xlink:href="#DejaVuSans-74" transform="translate(656.294922 0)"/>
     <use xlink:href="#DejaVuSans-65" transform="translate(695.503906 0)"/>
     <use xlink:href="#DejaVuSans-72" transform="translate(757.027344 0)"/>
     <use xlink:href="#DejaVuSans-20" transform="translate(798.140625 0)"/>
     <use xlink:href="#DejaVuSans-44" transform="translate(829.927734 0)"/>
     <use xlink:href="#DejaVuSans-72" transform="translate(906.929688 0)"/>
     <use xlink:href="#DejaVuSans-69" transform="translate(948.042969 0)"/>
     <use xlink:href="#DejaVuSans-76" transform="translate(975.826172 0)"/>
     <use xlink:href="#DejaVuSans-65" transform="translate(1035.005859 0)"/>
     <use xlink:href="#DejaVuSans-72" transform="translate(1096.529297 0)"/>
    </g>
   </g>
   <g id="text_2">
    <!-- ADA4891 + BSD235N + LXM5-PD01 + Fraen Lens -->
    <g transform="translate(38.966953 141.063438) scale(0.09 -0.09)">
     <defs>
      <path id="DejaVuSans-41" d="M 2188 4044 
L 1331 1722 
L 3047 1722 
L 2188 4044 
z
M 1831 4666 
L 2547 4666 
L 4325 0 
L 3669 0 
L 3244 1197 
L 1141 1197 
L 716 0 
L 50 0 
L 1831 4666 
z
" transform="scale(0.015625)"/>
      <path id="DejaVuSans-34" d="M 2419 4116 
L 825 1625 
L 2419 1625 
L 2419 4116 
z
M 2253 4666 
L 3047 4666 
L 3047 1625 
L 3713 1625 
L 3713 1100 
L 3047 1100 
L 3047 0 
L 2419 0 
L 2419 1100 
L 313 1100 
L 313 1709 
L 2253 4666 
z
" transform="scale(0.015625)"/>
      <path id="DejaVuSans-38" d="M 2034 2216 
Q 1584 2216 1326 1975 
Q 1069 1734 1069 1313 
Q 1069 891 1326 650 
Q 1584 409 2034 409 
Q 2484 409 2743 651 
Q 3003 894 3003 1313 
Q 3003 1734 2745 1975 
Q 2488 2216 2034 2216 
z
M 1403 2484 
Q 997 2584 770 2862 
Q 544 3141 544 3541 
Q 544 4100 942 4425 
Q 1341 4750 2034 4750 
Q 2731 4750 3128 4425 
Q 3525 4100 3525 3541 
Q 3525 3141 3298 2862 
Q 3072 2584 2669 2484 
Q 3125 2378 3379 2068 
Q 3634 1759 3634 1313 
Q 3634 634 3220 271 
Q 2806 -91 2034 -91 
Q 1263 -91 848 271 
Q 434 634 434 1313 
Q 434 1759 690 2068 
Q 947 2378 1403 2484 
z
M 1172 3481 
Q 1172 3119 1398 2916 
Q 1625 2713 2034 2713 
Q 2441 2713 2670 2916 
Q 2900 3119 2900 3481 
Q 2900 3844 2670 4047 
Q 2441 4250 2034 4250 
Q 1625 4250 1398 4047 
Q 1172 3844 1172 3481 
z
" transform="scale(0.015625)"/>
      <path id="DejaVuSans-39" d="M 703 97 
L 703 672 
Q 941 559 1184 500 
Q 1428 441 1663 441 
Q 2288 441 2617 861 
Q 2947 1281 2994 2138 
Q 2813 1869 2534 1725 
Q 2256 1581 1919 1581 
Q 1219 1581 811 2004 
Q 403 2428 403 3163 
Q 403 3881 828 4315 
Q 1253 4750 1959 4750 
Q 2769 4750 3195 4129 
Q 3622 3509 3622 2328 
Q 3622 1225 3098 567 
Q 2575 -91 1691 -91 
Q 1453 -91 1209 -44 
Q 966 3 703 97 
z
M 1959 2075 
Q 2384 2075 2632 2365 
Q 2881 2656 2881 3163 
Q 2881 3666 2632 3958 
Q 2384 4250 1959 4250 
Q 1534 4250 1286 3958 
Q 1038 3666 1038 3163 
Q 1038 2656 1286 2365 
Q 1534 2075 1959 2075 
z
" transform="scale(0.015625)"/>
      <path id="DejaVuSans-31" d="M 794 531 
L 1825 531 
L 1825 4091 
L 703 3866 
L 703 4441 
L 1819 4666 
L 2450 4666 
L 2450 531 
L 3481 531 
L 3481 0 
L 794 0 
L 794 531 
z
" transform="scale(0.015625)"/>
      <path id="DejaVuSans-2b" d="M 2944 4013 
L 2944 2272 
L 4684 2272 
L 4684 1741 
L 2944 1741 
L 2944 0 
L 2419 0 
L 2419 1741 
L 678 1741 
L 678 2272 
L 2419 2272 
L 2419 4013 
L 2944 4013 
z
" transform="scale(0.015625)"/>
      <path id="DejaVuSans-42" d="M 1259 2228 
L 1259 519 
L 2272 519 
Q 2781 519 3026 730 
Q 3272 941 3272 1375 
Q 3272 1813 3026 2020 
Q 2781 2228 2272 2228 
L 1259 2228 
z
M 1259 4147 
L 1259 2741 
L 2194 2741 
Q 2656 2741 2882 2914 
Q 3109 3088 3109 3444 
Q 3109 3797 2882 3972 
Q 2656 4147 2194 4147 
L 1259 4147 
z
M 628 4666 
L 2241 4666 
Q 2963 4666 3353 4366 
Q 3744 4066 3744 3513 
Q 3744 3084 3544 2831 
Q 3344 2578 2956 2516 
Q 3422 2416 3680 2098 
Q 3938 1781 3938 1306 
Q 3938 681 3513 340 
Q 3088 0 2303 0 
L 628 0 
L 628 4666 
z
" transform="scale(0.015625)"/>
      <path id="DejaVuSans-53" d="M 3425 4513 
L 3425 3897 
Q 3066 4069 2747 4153 
Q 2428 4238 2131 4238 
Q 1616 4238 1336 4038 
Q 1056 3838 1056 3469 
Q 1056 3159 1242 3001 
Q 1428 2844 1947 2747 
L 2328 2669 
Q 3034 2534 3370 2195 
Q 3706 1856 3706 1288 
Q 3706 609 3251 259 
Q 2797 -91 1919 -91 
Q 1588 -91 1214 -16 
Q 841 59 441 206 
L 441 856 
Q 825 641 1194 531 
Q 1563 422 1919 422 
Q 2459 422 2753 634 
Q 3047 847 3047 1241 
Q 3047 1584 2836 1778 
Q 2625 1972 2144 2069 
L 1759 2144 
Q 1053 2284 737 2584 
Q 422 2884 422 3419 
Q 422 4038 858 4394 
Q 1294 4750 2059 4750 
Q 2388 4750 2728 4690 
Q 3069 4631 3425 4513 
z
" transform="scale(0.015625)"/>
      <path id="DejaVuSans-32" d="M 1228 531 
L 3431 531 
L 3431 0 
L 469 0 
L 469 531 
Q 828 903 1448 1529 
Q 2069 2156 2228 2338 
Q 2531 2678 2651 2914 
Q 2772 3150 2772 3378 
Q 2772 3750 2511 3984 
Q 2250 4219 1831 4219 
Q 1534 4219 1204 4116 
Q 875 4013 500 3803 
L 500 4441 
Q 881 4594 1212 4672 
Q 1544 4750 1819 4750 
Q 2544 4750 2975 4387 
Q 3406 4025 3406 3419 
Q 3406 3131 3298 2873 
Q 3191 2616 2906 2266 
Q 2828 2175 2409 1742 
Q 1991 1309 1228 531 
z
" transform="scale(0.015625)"/>
      <path id="DejaVuSans-33" d="M 2597 2516 
Q 3050 2419 3304 2112 
Q 3559 1806 3559 1356 
Q 3559 666 3084 287 
Q 2609 -91 1734 -91 
Q 1441 -91 1130 -33 
Q 819 25 488 141 
L 488 750 
Q 750 597 1062 519 
Q 1375 441 1716 441 
Q 2309 441 2620 675 
Q 2931 909 2931 1356 
Q 2931 1769 2642 2001 
Q 2353 2234 1838 2234 
L 1294 2234 
L 1294 2753 
L 1863 2753 
Q 2328 2753 2575 2939 
Q 2822 3125 2822 3475 
Q 2822 3834 2567 4026 
Q 2313 4219 1838 4219 
Q 1578 4219 1281 4162 
Q 984 4106 628 3988 
L 628 4550 
Q 988 4650 1302 4700 
Q 1616 4750 1894 4750 
Q 2613 4750 3031 4423 
Q 3450 4097 3450 3541 
Q 3450 3153 3228 2886 
Q 3006 2619 2597 2516 
z
" transform="scale(0.015625)"/>
      <path id="DejaVuSans-35" d="M 691 4666 
L 3169 4666 
L 3169 4134 
L 1269 4134 
L 1269 2991 
Q 1406 3038 1543 3061 
Q 1681 3084 1819 3084 
Q 2600 3084 3056 2656 
Q 3513 2228 3513 1497 
Q 3513 744 3044 326 
Q 2575 -91 1722 -91 
Q 1428 -91 1123 -41 
Q 819 9 494 109 
L 494 744 
Q 775 591 1075 516 
Q 1375 441 1709 441 
Q 2250 441 2565 725 
Q 2881 1009 2881 1497 
Q 2881 1984 2565 2268 
Q 2250 2553 1709 2553 
Q 1456 2553 1204 2497 
Q 953 2441 691 2322 
L 691 4666 
z
" transform="scale(0.015625)"/>
      <path id="DejaVuSans-4e" d="M 628 4666 
L 1478 4666 
L 3547 763 
L 3547 4666 
L 4159 4666 
L 4159 0 
L 3309 0 
L 1241 3903 
L 1241 0 
L 628 0 
L 628 4666 
z
" transform="scale(0.015625)"/>
      <path id="DejaVuSans-58" d="M 403 4666 
L 1081 4666 
L 2241 2931 
L 3406 4666 
L 4084 4666 
L 2584 2425 
L 4184 0 
L 3506 0 
L 2194 1984 
L 872 0 
L 191 0 
L 1856 2491 
L 403 4666 
z
" transform="scale(0.015625)"/>
      <path id="DejaVuSans-4d" d="M 628 4666 
L 1569 4666 
L 2759 1491 
L 3956 4666 
L 4897 4666 
L 4897 0 
L 4281 0 
L 4281 4097 
L 3078 897 
L 2444 897 
L 1241 4097 
L 1241 0 
L 628 0 
L 628 4666 
z
" transform="scale(0.015625)"/>
      <path id="DejaVuSans-2d" d="M 313 2009 
L 1997 2009 
L 1997 1497 
L 313 1497 
L 313 2009 
z
" transform="scale(0.015625)"/>
      <path id="DejaVuSans-50" d="M 1259 4147 
L 1259 2394 
L 2053 2394 
Q 2494 2394 2734 2622 
Q 2975 2850 2975 3272 
Q 2975 3691 2734 3919 
Q 2494 4147 2053 4147 
L 1259 4147 
z
M 628 4666 
L 2053 4666 
Q 2838 4666 3239 4311 
Q 3641 3956 3641 3272 
Q 3641 2581 3239 2228 
Q 2838 1875 2053 1875 
L 1259 1875 
L 1259 0 
L 628 0 
L 628 4666 
z
" transform="scale(0.015625)"/>
      <path id="DejaVuSans-30" d="M 2034 4250 
Q 1547 4250 1301 3770 
Q 1056 3291 1056 2328 
Q 1056 1369 1301 889 
Q 1547 409 2034 409 
Q 2525 409 2770 889 
Q 3016 1369 3016 2328 
Q 3016 3291 2770 3770 
Q 2525 4250 2034 4250 
z
M 2034 4750 
Q 2819 4750 3233 4129 
Q 3647 3509 3647 2328 
Q 3647 1150 3233 529 
Q 2819 -91 2034 -91 
Q 1250 -91 836 529 
Q 422 1150 422 2328 
Q 422 3509 836 4129 
Q 1250 4750 2034 4750 
z
" transform="scale(0.015625)"/>
      <path id="DejaVuSans-46" d="M 628 4666 
L 3309 4666 
L 3309 4134 
L 1259 4134 
L 1259 2759 
L 3109 2759 
L 3109 2228 
L 1259 2228 
L 1259 0 
L 628 0 
L 628 4666 
z
" transform="scale(0.015625)"/>
     </defs>
     <use xlink:href="#DejaVuSans-41"/>
     <use xlink:href="#DejaVuSans-44" transform="translate(68.408203 0)"/>
     <use xlink:href="#DejaVuSans-41" transform="translate(143.660156 0)"/>
     <use xlink:href="#DejaVuSans-34" transform="translate(212.068359 0)"/>
     <use xlink:href="#DejaVuSans-38" transform="translate(275.691406 0)"/>
     <use xlink:href="#DejaVuSans-39" transform="translate(339.314453 0)"/>
     <use xlink:href="#DejaVuSans-31" transform="translate(402.9375 0)"/>
     <use xlink:href="#DejaVuSans-20" transform="translate(466.560547 0)"/>
     <use xlink:href="#DejaVuSans-2b" transform="translate(498.347656 0)"/>
     <use xlink:href="#DejaVuSans-20" transform="translate(582.136719 0)"/>
     <use xlink:href="#DejaVuSans-42" transform="translate(613.923828 0)"/>
     <use xlink:href="#DejaVuSans-53" transform="translate(680.777344 0)"/>
     <use xlink:href="#DejaVuSans-44" transform="translate(744.253906 0)"/>
     <use xlink:href="#DejaVuSans-32" transform="translate(821.255859 0)"/>
     <use xlink:href="#DejaVuSans-33" transform="translate(884.878906 0)"/>
     <use xlink:href="#DejaVuSans-35" transform="translate(948.501953 0)"/>
     <use xlink:href="#DejaVuSans-4e" transform="translate(1012.125 0)"/>
     <use xlink:href="#DejaVuSans-20" transform="translate(1086.929688 0)"/>
     <use xlink:href="#DejaVuSans-2b" transform="translate(1118.716797 0)"/>
     <use xlink:href="#DejaVuSans-20" transform="translate(1202.505859 0)"/>
     <use xlink:href="#DejaVuSans-4c" transform="translate(1234.292969 0)"/>
     <use xlink:href="#DejaVuSans-58" transform="translate(1290.005859 0)"/>
     <use xlink:href="#DejaVuSans-4d" transform="translate(1358.511719 0)"/>
     <use xlink:href="#DejaVuSans-35" transform="translate(1444.791016 0)"/>
     <use xlink:href="#DejaVuSans-2d" transform="translate(1508.414062 0)"/>
     <use xlink:href="#DejaVuSans-50" transform="translate(1544.498047 0)"/>
     <use xlink:href="#DejaVuSans-44" transform="translate(1604.800781 0)"/>
     <use xlink:href="#DejaVuSans-30" transform="translate(1681.802734 0)"/>
     <use xlink:href="#DejaVuSans-31" transform="translate(1745.425781 0)"/>
     <use xlink:href="#DejaVuSans-20" transform="translate(1809.048828 0)"/>
     <use xlink:href="#DejaVuSans-2b" transform="translate(1840.835938 0)"/>
     <use xlink:href="#DejaVuSans-20" transform="translate(1924.625 0)"/>
     <use xlink:href="#DejaVuSans-46" transform="translate(1956.412109 0)"/>
     <use xlink:href="#DejaVuSans-72" transform="translate(2006.681641 0)"/>
     <use xlink:href="#DejaVuSans-61" transform="translate(2047.794922 0)"/>
     <use xlink:href="#DejaVuSans-65" transform="translate(2109.074219 0)"/>
     <use xlink:href="#DejaVuSans-6e" transform="translate(2170.597656 0)"/>
     <use xlink:href="#DejaVuSans-20" transform="translate(2233.976562 0)"/>
     <use xlink:href="#DejaVuSans-4c" transform="translate(2265.763672 0)"/>
     <use xlink:href="#DejaVuSans-65" transform="translate(2319.726562 0)"/>
     <use xlink:href="#DejaVuSans-6e" transform="translate(2381.25 0)"/>
     <use xlink:href="#DejaVuSans-73" transform="translate(2444.628906 0)"/>
    </g>
   </g>
   <g id="text_3">
    <!-- OOK -->
    <g transform="translate(84.799375 165.17375) scale(0.08 -0.08)">
     <defs>
      <path id="DejaVuSans-4f" d="M 2522 4238 
Q 1834 4238 1429 3725 
Q 1025 3213 1025 2328 
Q 1025 1447 1429 934 
Q 1834 422 2522 422 
Q 3209 422 3611 934 
Q 4013 1447 4013 2328 
Q 4013 3213 3611 3725 
Q 3209 4238 2522 4238 
z
M 2522 4750 
Q 3503 4750 4090 4092 
Q 4678 3434 4678 2328 
Q 4678 1225 4090 567 
Q 3503 -91 2522 -91 
Q 1538 -91 948 565 
Q 359 1222 359 2328 
Q 359 3434 948 4092 
Q 1538 4750 2522 4750 
z
" transform="scale(0.015625)"/>
      <path id="DejaVuSans-4b" d="M 628 4666 
L 1259 4666 
L 1259 2694 
L 3353 4666 
L 4166 4666 
L 1850 2491 
L 4331 0 
L 3500 0 
L 1259 2247 
L 1259 0 
L 628 0 
L 628 4666 
z
" transform="scale(0.015625)"/>
     </defs>
     <use xlink:href="#DejaVuSans-4f"/>
     <use xlink:href="#DejaVuSans-4f" transform="translate(78.710938 0)"/>
     <use xlink:href="#DejaVuSans-4b" transform="translate(157.421875 0)"/>
    </g>
    <!-- Signal -->
    <g transform="translate(81.4325 172.91625) scale(0.08 -0.08)">
     <defs>
      <path id="DejaVuSans-67" d="M 2906 1791 
Q 2906 2416 2648 2759 
Q 2391 3103 1925 3103 
Q 1463 3103 1205 2759 
Q 947 2416 947 1791 
Q 947 1169 1205 825 
Q 1463 481 1925 481 
Q 2391 481 2648 825 
Q 2906 1169 2906 1791 
z
M 3481 434 
Q 3481 -459 3084 -895 
Q 2688 -1331 1869 -1331 
Q 1566 -1331 1297 -1286 
Q 1028 -1241 775 -1147 
L 775 -588 
Q 1028 -725 1275 -790 
Q 1522 -856 1778 -856 
Q 2344 -856 2625 -561 
Q 2906 -266 2906 331 
L 2906 616 
Q 2728 306 2450 153 
Q 2172 0 1784 0 
Q 1141 0 747 490 
Q 353 981 353 1791 
Q 353 2603 747 3093 
Q 1141 3584 1784 3584 
Q 2172 3584 2450 3431 
Q 2728 3278 2906 2969 
L 2906 3500 
L 3481 3500 
L 3481 434 
z
" transform="scale(0.015625)"/>
      <path id="DejaVuSans-6c" d="M 603 4863 
L 1178 4863 
L 1178 0 
L 603 0 
L 603 4863 
z
" transform="scale(0.015625)"/>
     </defs>
     <use xlink:href="#DejaVuSans-53"/>
     <use xlink:href="#DejaVuSans-69" transform="translate(63.476562 0)"/>
     <use xlink:href="#DejaVuSans-67" transform="translate(91.259766 0)"/>
     <use xlink:href="#DejaVuSans-6e" transform="translate(154.736328 0)"/>
     <use xlink:href="#DejaVuSans-61" transform="translate(218.115234 0)"/>
     <use xlink:href="#DejaVuSans-6c" transform="translate(279.394531 0)"/>
    </g>
   </g>
   <g id="text_4">
    <!-- $R_e$ -->
    <g transform="translate(195.92 171.822188) scale(0.1 -0.1)">
     <defs>
      <path id="DejaVuSans-Oblique-52" d="M 1613 4147 
L 1294 2491 
L 2106 2491 
Q 2584 2491 2879 2755 
Q 3175 3019 3175 3444 
Q 3175 3784 2976 3965 
Q 2778 4147 2406 4147 
L 1613 4147 
z
M 2772 2241 
Q 2972 2194 3105 2009 
Q 3238 1825 3413 1275 
L 3809 0 
L 3144 0 
L 2778 1197 
Q 2638 1659 2453 1815 
Q 2269 1972 1888 1972 
L 1191 1972 
L 806 0 
L 172 0 
L 1081 4666 
L 2503 4666 
Q 3150 4666 3495 4373 
Q 3841 4081 3841 3531 
Q 3841 3044 3547 2687 
Q 3253 2331 2772 2241 
z
" transform="scale(0.015625)"/>
      <path id="DejaVuSans-Oblique-65" d="M 3078 2063 
Q 3088 2113 3092 2166 
Q 3097 2219 3097 2272 
Q 3097 2653 2873 2875 
Q 2650 3097 2266 3097 
Q 1838 3097 1509 2826 
Q 1181 2556 1013 2059 
L 3078 2063 
z
M 3578 1613 
L 903 1613 
Q 884 1494 878 1425 
Q 872 1356 872 1306 
Q 872 872 1139 634 
Q 1406 397 1894 397 
Q 2269 397 2603 481 
Q 2938 566 3225 728 
L 3116 159 
Q 2806 34 2476 -28 
Q 2147 -91 1806 -91 
Q 1078 -91 686 257 
Q 294 606 294 1247 
Q 294 1794 489 2264 
Q 684 2734 1063 3103 
Q 1306 3334 1642 3459 
Q 1978 3584 2356 3584 
Q 2950 3584 3301 3228 
Q 3653 2872 3653 2272 
Q 3653 2128 3634 1964 
Q 3616 1800 3578 1613 
z
" transform="scale(0.015625)"/>
     </defs>
     <use xlink:href="#DejaVuSans-Oblique-52" transform="translate(0 0.09375)"/>
     <use xlink:href="#DejaVuSans-Oblique-65" transform="translate(69.482422 -16.3125) scale(0.7)"/>
    </g>
    <!-- 12.1 Ω -->
    <g transform="translate(185.177031 181.500313) scale(0.1 -0.1)">
     <defs>
      <path id="DejaVuSans-2e" d="M 684 794 
L 1344 794 
L 1344 0 
L 684 0 
L 684 794 
z
" transform="scale(0.015625)"/>
      <path id="DejaVuSans-3a9" d="M 4647 556 
L 4647 0 
L 2772 0 
L 2772 556 
Q 3325 859 3634 1378 
Q 3944 1897 3944 2528 
Q 3944 3278 3531 3731 
Q 3119 4184 2444 4184 
Q 1769 4184 1355 3729 
Q 941 3275 941 2528 
Q 941 1897 1250 1378 
Q 1563 859 2119 556 
L 2119 0 
L 244 0 
L 244 556 
L 1241 556 
Q 747 991 519 1456 
Q 294 1922 294 2497 
Q 294 3491 894 4106 
Q 1491 4722 2444 4722 
Q 3391 4722 3994 4106 
Q 4594 3494 4594 2528 
Q 4594 1922 4372 1459 
Q 4150 997 3647 556 
L 4647 556 
z
" transform="scale(0.015625)"/>
     </defs>
     <use xlink:href="#DejaVuSans-31"/>
     <use xlink:href="#DejaVuSans-32" transform="translate(63.623047 0)"/>
     <use xlink:href="#DejaVuSans-2e" transform="translate(127.246094 0)"/>
     <use xlink:href="#DejaVuSans-31" transform="translate(159.033203 0)"/>
     <use xlink:href="#DejaVuSans-20" transform="translate(222.65625 0)"/>
     <use xlink:href="#DejaVuSans-3a9" transform="translate(254.443359 0)"/>
    </g>
   </g>
   <g id="text_5">
    <!-- LXM5-PD01 -->
    <g transform="translate(264.725 26.51625) scale(0.08 -0.08)">
     <use xlink:href="#DejaVuSans-4c"/>
     <use xlink:href="#DejaVuSans-58" transform="translate(55.712891 0)"/>
     <use xlink:href="#DejaVuSans-4d" transform="translate(124.21875 0)"/>
     <use xlink:href="#DejaVuSans-35" transform="translate(210.498047 0)"/>
     <use xlink:href="#DejaVuSans-2d" transform="translate(274.121094 0)"/>
     <use xlink:href="#DejaVuSans-50" transform="translate(310.205078 0)"/>
     <use xlink:href="#DejaVuSans-44" transform="translate(370.507812 0)"/>
     <use xlink:href="#DejaVuSans-30" transform="translate(447.509766 0)"/>
     <use xlink:href="#DejaVuSans-31" transform="translate(511.132812 0)"/>
    </g>
   </g>
   <g id="text_6">
    <!-- BSD235N -->
    <g transform="translate(294.39875 255.9875) scale(0.08 -0.08)">
     <use xlink:href="#DejaVuSans-42"/>
     <use xlink:href="#DejaVuSans-53" transform="translate(66.853516 0)"/>
     <use xlink:href="#DejaVuSans-44" transform="translate(130.330078 0)"/>
     <use xlink:href="#DejaVuSans-32" transform="translate(207.332031 0)"/>
     <use xlink:href="#DejaVuSans-33" transform="translate(270.955078 0)"/>
     <use xlink:href="#DejaVuSans-35" transform="translate(334.578125 0)"/>
     <use xlink:href="#DejaVuSans-4e" transform="translate(398.201172 0)"/>
    </g>
   </g>
   <g id="text_7">
    <!-- Fraen Lens -->
    <g transform="translate(349.32 118.37375) scale(0.08 -0.08)">
     <use xlink:href="#DejaVuSans-46"/>
     <use xlink:href="#DejaVuSans-72" transform="translate(50.269531 0)"/>
     <use xlink:href="#DejaVuSans-61" transform="translate(91.382812 0)"/>
     <use xlink:href="#DejaVuSans-65" transform="translate(152.662109 0)"/>
     <use xlink:href="#DejaVuSans-6e" transform="translate(214.185547 0)"/>
     <use xlink:href="#DejaVuSans-20" transform="translate(277.564453 0)"/>
     <use xlink:href="#DejaVuSans-4c" transform="translate(309.351562 0)"/>
     <use xlink:href="#DejaVuSans-65" transform="translate(363.314453 0)"/>
     <use xlink:href="#DejaVuSans-6e" transform="translate(424.837891 0)"/>
     <use xlink:href="#DejaVuSans-73" transform="translate(488.216797 0)"/>
    </g>
    <!-- $T$ = 0.85 -->
    <g transform="translate(349.32 126.11625) scale(0.08 -0.08)">
     <defs>
      <path id="DejaVuSans-Oblique-54" d="M 378 4666 
L 4325 4666 
L 4225 4134 
L 2559 4134 
L 1759 0 
L 1125 0 
L 1925 4134 
L 275 4134 
L 378 4666 
z
" transform="scale(0.015625)"/>
      <path id="DejaVuSans-3d" d="M 678 2906 
L 4684 2906 
L 4684 2381 
L 678 2381 
L 678 2906 
z
M 678 1631 
L 4684 1631 
L 4684 1100 
L 678 1100 
L 678 1631 
z
" transform="scale(0.015625)"/>
     </defs>
     <use xlink:href="#DejaVuSans-Oblique-54" transform="translate(0 0.78125)"/>
     <use xlink:href="#DejaVuSans-20" transform="translate(61.083984 0.78125)"/>
     <use xlink:href="#DejaVuSans-3d" transform="translate(92.871094 0.78125)"/>
     <use xlink:href="#DejaVuSans-20" transform="translate(176.660156 0.78125)"/>
     <use xlink:href="#DejaVuSans-30" transform="translate(208.447266 0.78125)"/>
     <use xlink:href="#DejaVuSans-2e" transform="translate(272.070312 0.78125)"/>
     <use xlink:href="#DejaVuSans-38" transform="translate(301.232422 0.78125)"/>
     <use xlink:href="#DejaVuSans-35" transform="translate(364.855469 0.78125)"/>
    </g>
    <!-- θ½ = 9.0° -->
    <g transform="translate(349.32 133.85875) scale(0.08 -0.08)">
     <defs>
      <path id="DejaVuSans-3b8" d="M 2953 2219 
L 963 2219 
Q 1009 1284 1225 888 
Q 1494 400 1959 400 
Q 2428 400 2688 891 
Q 2916 1322 2953 2219 
z
M 2944 2750 
Q 2856 3638 2688 3950 
Q 2419 4444 1959 4444 
Q 1481 4444 1228 3956 
Q 1028 3563 969 2750 
L 2944 2750 
z
M 1959 4913 
Q 2709 4913 3138 4250 
Q 3566 3591 3566 2422 
Q 3566 1256 3138 594 
Q 2709 -72 1959 -72 
Q 1206 -72 781 594 
Q 353 1256 353 2422 
Q 353 3591 781 4250 
Q 1206 4913 1959 4913 
z
" transform="scale(0.015625)"/>
      <path id="DejaVuSans-bd" d="M 488 2431 
L 1125 2431 
L 1125 4341 
L 428 4213 
L 428 4575 
L 1147 4697 
L 1575 4697 
L 1575 2431 
L 2216 2431 
L 2216 2088 
L 488 2088 
L 488 2431 
z
M 4470 332 
L 5795 332 
L 5795 -24 
L 3926 -24 
L 3926 319 
Q 4032 416 4229 591 
Q 5304 1544 5304 1838 
Q 5304 2044 5141 2170 
Q 4979 2297 4713 2297 
Q 4551 2297 4360 2242 
Q 4170 2188 3945 2079 
L 3945 2463 
Q 4185 2551 4393 2594 
Q 4601 2638 4779 2638 
Q 5232 2638 5504 2432 
Q 5776 2226 5776 1888 
Q 5776 1454 4741 566 
Q 4566 416 4470 332 
z
M 4309 4750 
L 4809 4750 
L 1896 -91 
L 1396 -91 
L 4309 4750 
z
" transform="scale(0.015625)"/>
      <path id="DejaVuSans-b0" d="M 1600 4347 
Q 1350 4347 1178 4173 
Q 1006 4000 1006 3750 
Q 1006 3503 1178 3333 
Q 1350 3163 1600 3163 
Q 1850 3163 2022 3333 
Q 2194 3503 2194 3750 
Q 2194 3997 2020 4172 
Q 1847 4347 1600 4347 
z
M 1600 4750 
Q 1800 4750 1984 4673 
Q 2169 4597 2303 4453 
Q 2447 4313 2519 4134 
Q 2591 3956 2591 3750 
Q 2591 3338 2302 3052 
Q 2013 2766 1594 2766 
Q 1172 2766 890 3047 
Q 609 3328 609 3750 
Q 609 4169 896 4459 
Q 1184 4750 1600 4750 
z
" transform="scale(0.015625)"/>
     </defs>
     <use xlink:href="#DejaVuSans-3b8"/>
     <use xlink:href="#DejaVuSans-bd" transform="translate(61.181641 0)"/>
     <use xlink:href="#DejaVuSans-20" transform="translate(158.105469 0)"/>
     <use xlink:href="#DejaVuSans-3d" transform="translate(189.892578 0)"/>
     <use xlink:href="#DejaVuSans-20" transform="translate(273.681641 0)"/>
     <use xlink:href="#DejaVuSans-39" transform="translate(305.46875 0)"/>
     <use xlink:href="#DejaVuSans-2e" transform="translate(369.091797 0)"/>
     <use xlink:href="#DejaVuSans-30" transform="translate(400.878906 0)"/>
     <use xlink:href="#DejaVuSans-b0" transform="translate(464.501953 0)"/>
    </g>
    <!-- $P_e$ = 9.3 mW -->
    <g transform="translate(349.32 141.60125) scale(0.08 -0.08)">
     <defs>
      <path id="DejaVuSans-Oblique-50" d="M 1081 4666 
L 2541 4666 
Q 3178 4666 3512 4369 
Q 3847 4072 3847 3500 
Q 3847 2731 3353 2303 
Q 2859 1875 1966 1875 
L 1172 1875 
L 806 0 
L 172 0 
L 1081 4666 
z
M 1613 4147 
L 1275 2394 
L 2069 2394 
Q 2606 2394 2893 2669 
Q 3181 2944 3181 3456 
Q 3181 3784 2986 3965 
Q 2791 4147 2438 4147 
L 1613 4147 
z
" transform="scale(0.015625)"/>
      <path id="DejaVuSans-57" d="M 213 4666 
L 850 4666 
L 1831 722 
L 2809 4666 
L 3519 4666 
L 4500 722 
L 5478 4666 
L 6119 4666 
L 4947 0 
L 4153 0 
L 3169 4050 
L 2175 0 
L 1381 0 
L 213 4666 
z
" transform="scale(0.015625)"/>
     </defs>
     <use xlink:href="#DejaVuSans-Oblique-50" transform="translate(0 0.78125)"/>
     <use xlink:href="#DejaVuSans-Oblique-65" transform="translate(60.302734 -15.625) scale(0.7)"/>
     <use xlink:href="#DejaVuSans-20" transform="translate(106.103516 0.78125)"/>
     <use xlink:href="#DejaVuSans-3d" transform="translate(137.890625 0.78125)"/>
     <use xlink:href="#DejaVuSans-20" transform="translate(221.679688 0.78125)"/>
     <use xlink:href="#DejaVuSans-39" transform="translate(253.466797 0.78125)"/>
     <use xlink:href="#DejaVuSans-2e" transform="translate(317.089844 0.78125)"/>
     <use xlink:href="#DejaVuSans-33" transform="translate(348.876953 0.78125)"/>
     <use xlink:href="#DejaVuSans-20" transform="translate(412.5 0.78125)"/>
     <use xlink:href="#DejaVuSans-6d" transform="translate(444.287109 0.78125)"/>
     <use xlink:href="#DejaVuSans-57" transform="translate(541.699219 0.78125)"/>
    </g>
   </g>
   <g id="patch_6">
    <path d="M 39.72 198.88 
C 40.436048 198.88 41.122866 198.595511 41.629188 198.089188 
C 42.135511 197.582866 42.42 196.896048 42.42 196.18 
C 42.42 195.463952 42.135511 194.777134 41.629188 194.270812 
C 41.122866 193.764489 40.436048 193.48 39.72 193.48 
C 39.003952 193.48 38.317134 193.764489 37.810812 194.270812 
C 37.304489 194.777134 37.02 195.463952 37.02 196.18 
C 37.02 196.896048 37.304489 197.582866 37.810812 198.089188 
C 38.317134 198.595511 39.003952 198.88 39.72 198.88 
z
" clip-path="url(#p7af31cb85c)" style="stroke: #000000; stroke-width: 2; stroke-linejoin: miter"/>
   </g>
   <g id="text_8">
    <!-- $V_{mod}$ -->
    <g transform="translate(10.72 198.939375) scale(0.1 -0.1)">
     <defs>
      <path id="DejaVuSans-Oblique-56" d="M 1319 0 
L 500 4666 
L 1119 4666 
L 1797 653 
L 4063 4666 
L 4750 4666 
L 2053 0 
L 1319 0 
z
" transform="scale(0.015625)"/>
      <path id="DejaVuSans-Oblique-6d" d="M 5747 2113 
L 5338 0 
L 4763 0 
L 5166 2094 
Q 5191 2228 5203 2325 
Q 5216 2422 5216 2491 
Q 5216 2772 5059 2928 
Q 4903 3084 4622 3084 
Q 4203 3084 3875 2770 
Q 3547 2456 3450 1953 
L 3066 0 
L 2491 0 
L 2900 2094 
Q 2925 2209 2937 2307 
Q 2950 2406 2950 2484 
Q 2950 2769 2794 2926 
Q 2638 3084 2363 3084 
Q 1938 3084 1609 2770 
Q 1281 2456 1184 1953 
L 800 0 
L 225 0 
L 909 3500 
L 1484 3500 
L 1375 2956 
Q 1609 3263 1923 3423 
Q 2238 3584 2597 3584 
Q 2978 3584 3223 3384 
Q 3469 3184 3519 2828 
Q 3781 3197 4126 3390 
Q 4472 3584 4856 3584 
Q 5306 3584 5551 3325 
Q 5797 3066 5797 2591 
Q 5797 2488 5784 2364 
Q 5772 2241 5747 2113 
z
" transform="scale(0.015625)"/>
      <path id="DejaVuSans-Oblique-6f" d="M 1625 -91 
Q 1009 -91 651 289 
Q 294 669 294 1325 
Q 294 1706 417 2101 
Q 541 2497 738 2766 
Q 1047 3184 1428 3384 
Q 1809 3584 2291 3584 
Q 2888 3584 3255 3212 
Q 3622 2841 3622 2241 
Q 3622 1825 3500 1412 
Q 3378 1000 3181 728 
Q 2875 309 2494 109 
Q 2113 -91 1625 -91 
z
M 891 1344 
Q 891 869 1089 633 
Q 1288 397 1691 397 
Q 2269 397 2648 901 
Q 3028 1406 3028 2181 
Q 3028 2634 2825 2865 
Q 2622 3097 2228 3097 
Q 1903 3097 1650 2945 
Q 1397 2794 1197 2484 
Q 1050 2253 970 1956 
Q 891 1659 891 1344 
z
" transform="scale(0.015625)"/>
      <path id="DejaVuSans-Oblique-64" d="M 2675 525 
Q 2444 222 2128 65 
Q 1813 -91 1428 -91 
Q 903 -91 598 267 
Q 294 625 294 1247 
Q 294 1766 478 2236 
Q 663 2706 1013 3078 
Q 1244 3325 1534 3454 
Q 1825 3584 2144 3584 
Q 2481 3584 2739 3421 
Q 2997 3259 3138 2956 
L 3513 4863 
L 4091 4863 
L 3144 0 
L 2566 0 
L 2675 525 
z
M 891 1350 
Q 891 897 1095 644 
Q 1300 391 1663 391 
Q 1931 391 2161 520 
Q 2391 650 2566 903 
Q 2750 1166 2856 1509 
Q 2963 1853 2963 2188 
Q 2963 2622 2758 2865 
Q 2553 3109 2194 3109 
Q 1922 3109 1687 2981 
Q 1453 2853 1288 2613 
Q 1106 2353 998 2009 
Q 891 1666 891 1350 
z
" transform="scale(0.015625)"/>
     </defs>
     <use xlink:href="#DejaVuSans-Oblique-56" transform="translate(0 0.09375)"/>
     <use xlink:href="#DejaVuSans-Oblique-6d" transform="translate(68.408203 -16.3125) scale(0.7)"/>
     <use xlink:href="#DejaVuSans-Oblique-6f" transform="translate(136.59668 -16.3125) scale(0.7)"/>
     <use xlink:href="#DejaVuSans-Oblique-64" transform="translate(179.423828 -16.3125) scale(0.7)"/>
    </g>
   </g>
   <g id="patch_7">
    <path d="M 255.72 198.88 
C 256.436048 198.88 257.122866 198.595511 257.629188 198.089188 
C 258.135511 197.582866 258.42 196.896048 258.42 196.18 
C 258.42 195.463952 258.135511 194.777134 257.629188 194.270812 
C 257.122866 193.764489 256.436048 193.48 255.72 193.48 
C 255.003952 193.48 254.317134 193.764489 253.810812 194.270812 
C 253.304489 194.777134 253.02 195.463952 253.02 196.18 
C 253.02 196.896048 253.304489 197.582866 253.810812 198.089188 
C 254.317134 198.595511 255.003952 198.88 255.72 198.88 
z
" clip-path="url(#p7af31cb85c)" style="stroke: #000000; stroke-width: 2; stroke-linejoin: miter"/>
   </g>
   <g id="patch_8">
    <path d="M 300.72 23.68 
C 301.436048 23.68 302.122866 23.395511 302.629188 22.889188 
C 303.135511 22.382866 303.42 21.696048 303.42 20.98 
C 303.42 20.263952 303.135511 19.577134 302.629188 19.070812 
C 302.122866 18.564489 301.436048 18.28 300.72 18.28 
C 300.003952 18.28 299.317134 18.564489 298.810812 19.070812 
C 298.304489 19.577134 298.02 20.263952 298.02 20.98 
C 298.02 21.696048 298.304489 22.382866 298.810812 22.889188 
C 299.317134 23.395511 300.003952 23.68 300.72 23.68 
z
" clip-path="url(#p7af31cb85c)" style="stroke: #000000; stroke-width: 2; stroke-linejoin: miter"/>
   </g>
   <g id="text_9">
    <!-- $V_{CC}$ -->
    <g transform="translate(292.27 12.600313) scale(0.1 -0.1)">
     <defs>
      <path id="DejaVuSans-Oblique-43" d="M 4447 4306 
L 4319 3641 
Q 4019 3944 3683 4091 
Q 3347 4238 2956 4238 
Q 2422 4238 2017 3981 
Q 1613 3725 1319 3200 
Q 1131 2863 1032 2486 
Q 934 2109 934 1728 
Q 934 1091 1264 756 
Q 1594 422 2222 422 
Q 2656 422 3056 561 
Q 3456 700 3834 978 
L 3688 231 
Q 3316 72 2936 -9 
Q 2556 -91 2175 -91 
Q 1278 -91 773 396 
Q 269 884 269 1753 
Q 269 2309 461 2846 
Q 653 3384 1013 3828 
Q 1394 4300 1883 4525 
Q 2372 4750 3022 4750 
Q 3422 4750 3780 4639 
Q 4138 4528 4447 4306 
z
" transform="scale(0.015625)"/>
     </defs>
     <use xlink:href="#DejaVuSans-Oblique-56" transform="translate(0 0.09375)"/>
     <use xlink:href="#DejaVuSans-Oblique-43" transform="translate(68.408203 -16.3125) scale(0.7)"/>
     <use xlink:href="#DejaVuSans-Oblique-43" transform="translate(117.285156 -16.3125) scale(0.7)"/>
    </g>
   </g>
  </g>
 </g>
 <defs>
  <clipPath id="p7af31cb85c">
   <rect x="0" y="0" width="403.056" height="262.46"/>
  </clipPath>
 </defs>
</svg>
