<?xml version="1.0" encoding="utf-8" standalone="no"?>
<!DOCTYPE svg PUBLIC "-//W3C//DTD SVG 1.1//EN"
  "http://www.w3.org/Graphics/SVG/1.1/DTD/svg11.dtd">
<svg xmlns:xlink="http://www.w3.org/1999/xlink" width="332.58pt" height="172.86pt" viewBox="0 0 332.58 172.86" xmlns="http://www.w3.org/2000/svg" version="1.1">
 <metadata>
  <rdf:RDF xmlns:dc="http://purl.org/dc/elements/1.1/" xmlns:cc="http://creativecommons.org/ns#" xmlns:rdf="http://www.w3.org/1999/02/22-rdf-syntax-ns#">
   <cc:Work>
    <dc:type rdf:resource="http://purl.org/dc/dcmitype/StillImage"/>
    <dc:date>2026-02-25T03:01:39.740813</dc:date>
    <dc:format>image/svg+xml</dc:format>
    <dc:creator>
     <cc:Agent>
      <dc:title>Matplotlib v3.10.8, https://matplotlib.org/</dc:title>
     </cc:Agent>
    </dc:creator>
   </cc:Work>
  </rdf:RDF>
 </metadata>
 <defs>
  <style type="text/css">*{stroke-linejoin: round; stroke-linecap: butt}</style>
 </defs>
 <g id="figure_1">
  <g id="patch_1">
   <path d="M 0 172.86 
L 332.58 172.86 
L 332.58 0 
L 0 0 
L 0 172.86 
z
" style="fill: none"/>
  </g>
  <g id="axes_1">
   <g id="patch_2">
    <path d="M 63.66 77.28 
L 76.26 86.28 
L 63.66 95.28 
L 63.66 77.28 
z
" clip-path="url(#p284f4b09f4)" style="fill: none; stroke: #000000; stroke-width: 2; stroke-linecap: round"/>
   </g>
   <g id="line2d_1">
    <path d="M 51.96 86.28 
L 63.66 86.28 
M 76.26 77.28 
L 76.26 95.28 
M 76.26 86.28 
L 87.96 86.28 
" clip-path="url(#p284f4b09f4)" style="fill: none; stroke: #000000; stroke-width: 2; stroke-linecap: round"/>
   </g>
   <g id="line2d_2">
    <path d="M 72.66 72.78 
L 78.0878 63.281351 
" clip-path="url(#p284f4b09f4)" style="fill: none; stroke: #000000; stroke-width: 2; stroke-linecap: round"/>
   </g>
   <g id="patch_3">
    <path d="M 75.587259 61.85247 
L 81.66 57.03 
L 80.58834 64.710231 
z
" clip-path="url(#p284f4b09f4)"/>
   </g>
   <g id="line2d_3">
    <path d="M 64.56 72.78 
L 69.9878 63.281351 
" clip-path="url(#p284f4b09f4)" style="fill: none; stroke: #000000; stroke-width: 2; stroke-linecap: round"/>
   </g>
   <g id="patch_4">
    <path d="M 67.487259 61.85247 
L 73.56 57.03 
L 72.48834 64.710231 
z
" clip-path="url(#p284f4b09f4)"/>
   </g>
   <g id="line2d_4">
    <path d="M 87.96 86.28 
L 141.96 86.28 
L 186.96 86.28 
" clip-path="url(#p284f4b09f4)" style="fill: none; stroke: #ff0000; stroke-width: 2; stroke-linecap: round"/>
   </g>
   <g id="patch_5">
    <path d="M 186.96 83.58 
L 195.96 86.28 
L 186.96 88.98 
z
" clip-path="url(#p284f4b09f4)" style="fill: #ff0000"/>
   </g>
   <g id="line2d_5">
    <path d="M 195.96 86.28 
L 231.96 86.28 
L 231.96 77.28 
L 267.96 77.28 
L 267.96 95.28 
L 231.96 95.28 
L 231.96 86.28 
M 267.96 86.28 
L 303.96 86.28 
" clip-path="url(#p284f4b09f4)" style="fill: none; stroke: #000000; stroke-width: 2; stroke-linecap: round"/>
   </g>
   <g id="text_1">
    <!-- Optical Channel Model (Lambertian LOS) -->
    <g transform="translate(5.419687 13.99125) scale(0.12 -0.12)">
     <defs>
      <path id="DejaVuSans-4f" d="M 2522 4238 
Q 1834 4238 1429 3725 
Q 1025 3213 1025 2328 
Q 1025 1447 1429 934 
Q 1834 422 2522 422 
Q 3209 422 3611 934 
Q 4013 1447 4013 2328 
Q 4013 3213 3611 3725 
Q 3209 4238 2522 4238 
z
M 2522 4750 
Q 3503 4750 4090 4092 
Q 4678 3434 4678 2328 
Q 4678 1225 4090 567 
Q 3503 -91 2522 -91 
Q 1538 -91 948 565 
Q 359 1222 359 2328 
Q 359 3434 948 4092 
Q 1538 4750 2522 4750 
z
" transform="scale(0.015625)"/>
      <path id="DejaVuSans-70" d="M 1159 525 
L 1159 -1331 
L 581 -1331 
L 581 3500 
L 1159 3500 
L 1159 2969 
Q 1341 3281 1617 3432 
Q 1894 3584 2278 3584 
Q 2916 3584 3314 3078 
Q 3713 2572 3713 1747 
Q 3713 922 3314 415 
Q 2916 -91 2278 -91 
Q 1894 -91 1617 61 
Q 1341 213 1159 525 
z
M 3116 1747 
Q 3116 2381 2855 2742 
Q 2594 3103 2138 3103 
Q 1681 3103 1420 2742 
Q 1159 2381 1159 1747 
Q 1159 1113 1420 752 
Q 1681 391 2138 391 
Q 2594 391 2855 752 
Q 3116 1113 3116 1747 
z
" transform="scale(0.015625)"/>
      <path id="DejaVuSans-74" d="M 1172 4494 
L 1172 3500 
L 2356 3500 
L 2356 3053 
L 1172 3053 
L 1172 1153 
Q 1172 725 1289 603 
Q 1406 481 1766 481 
L 2356 481 
L 2356 0 
L 1766 0 
Q 1100 0 847 248 
Q 594 497 594 1153 
L 594 3053 
L 172 3053 
L 172 3500 
L 594 3500 
L 594 4494 
L 1172 4494 
z
" transform="scale(0.015625)"/>
      <path id="DejaVuSans-69" d="M 603 3500 
L 1178 3500 
L 1178 0 
L 603 0 
L 603 3500 
z
M 603 4863 
L 1178 4863 
L 1178 4134 
L 603 4134 
L 603 4863 
z
" transform="scale(0.015625)"/>
      <path id="DejaVuSans-63" d="M 3122 3366 
L 3122 2828 
Q 2878 2963 2633 3030 
Q 2388 3097 2138 3097 
Q 1578 3097 1268 2742 
Q 959 2388 959 1747 
Q 959 1106 1268 751 
Q 1578 397 2138 397 
Q 2388 397 2633 464 
Q 2878 531 3122 666 
L 3122 134 
Q 2881 22 2623 -34 
Q 2366 -91 2075 -91 
Q 1284 -91 818 406 
Q 353 903 353 1747 
Q 353 2603 823 3093 
Q 1294 3584 2113 3584 
Q 2378 3584 2631 3529 
Q 2884 3475 3122 3366 
z
" transform="scale(0.015625)"/>
      <path id="DejaVuSans-61" d="M 2194 1759 
Q 1497 1759 1228 1600 
Q 959 1441 959 1056 
Q 959 750 1161 570 
Q 1363 391 1709 391 
Q 2188 391 2477 730 
Q 2766 1069 2766 1631 
L 2766 1759 
L 2194 1759 
z
M 3341 1997 
L 3341 0 
L 2766 0 
L 2766 531 
Q 2569 213 2275 61 
Q 1981 -91 1556 -91 
Q 1019 -91 701 211 
Q 384 513 384 1019 
Q 384 1609 779 1909 
Q 1175 2209 1959 2209 
L 2766 2209 
L 2766 2266 
Q 2766 2663 2505 2880 
Q 2244 3097 1772 3097 
Q 1472 3097 1187 3025 
Q 903 2953 641 2809 
L 641 3341 
Q 956 3463 1253 3523 
Q 1550 3584 1831 3584 
Q 2591 3584 2966 3190 
Q 3341 2797 3341 1997 
z
" transform="scale(0.015625)"/>
      <path id="DejaVuSans-6c" d="M 603 4863 
L 1178 4863 
L 1178 0 
L 603 0 
L 603 4863 
z
" transform="scale(0.015625)"/>
      <path id="DejaVuSans-20" transform="scale(0.015625)"/>
      <path id="DejaVuSans-43" d="M 4122 4306 
L 4122 3641 
Q 3803 3938 3442 4084 
Q 3081 4231 2675 4231 
Q 1875 4231 1450 3742 
Q 1025 3253 1025 2328 
Q 1025 1406 1450 917 
Q 1875 428 2675 428 
Q 3081 428 3442 575 
Q 3803 722 4122 1019 
L 4122 359 
Q 3791 134 3420 21 
Q 3050 -91 2638 -91 
Q 1578 -91 968 557 
Q 359 1206 359 2328 
Q 359 3453 968 4101 
Q 1578 4750 2638 4750 
Q 3056 4750 3426 4639 
Q 3797 4528 4122 4306 
z
" transform="scale(0.015625)"/>
      <path id="DejaVuSans-68" d="M 3513 2113 
L 3513 0 
L 2938 0 
L 2938 2094 
Q 2938 2591 2744 2837 
Q 2550 3084 2163 3084 
Q 1697 3084 1428 2787 
Q 1159 2491 1159 1978 
L 1159 0 
L 581 0 
L 581 4863 
L 1159 4863 
L 1159 2956 
Q 1366 3272 1645 3428 
Q 1925 3584 2291 3584 
Q 2894 3584 3203 3211 
Q 3513 2838 3513 2113 
z
" transform="scale(0.015625)"/>
      <path id="DejaVuSans-6e" d="M 3513 2113 
L 3513 0 
L 2938 0 
L 2938 2094 
Q 2938 2591 2744 2837 
Q 2550 3084 2163 3084 
Q 1697 3084 1428 2787 
Q 1159 2491 1159 1978 
L 1159 0 
L 581 0 
L 581 3500 
L 1159 3500 
L 1159 2956 
Q 1366 3272 1645 3428 
Q 1925 3584 2291 3584 
Q 2894 3584 3203 3211 
Q 3513 2838 3513 2113 
z
" transform="scale(0.015625)"/>
      <path id="DejaVuSans-65" d="M 3597 1894 
L 3597 1613 
L 953 1613 
Q 991 1019 1311 708 
Q 1631 397 2203 397 
Q 2534 397 2845 478 
Q 3156 559 3463 722 
L 3463 178 
Q 3153 47 2828 -22 
Q 2503 -91 2169 -91 
Q 1331 -91 842 396 
Q 353 884 353 1716 
Q 353 2575 817 3079 
Q 1281 3584 2069 3584 
Q 2775 3584 3186 3129 
Q 3597 2675 3597 1894 
z
M 3022 2063 
Q 3016 2534 2758 2815 
Q 2500 3097 2075 3097 
Q 1594 3097 1305 2825 
Q 1016 2553 972 2059 
L 3022 2063 
z
" transform="scale(0.015625)"/>
      <path id="DejaVuSans-4d" d="M 628 4666 
L 1569 4666 
L 2759 1491 
L 3956 4666 
L 4897 4666 
L 4897 0 
L 4281 0 
L 4281 4097 
L 3078 897 
L 2444 897 
L 1241 4097 
L 1241 0 
L 628 0 
L 628 4666 
z
" transform="scale(0.015625)"/>
      <path id="DejaVuSans-6f" d="M 1959 3097 
Q 1497 3097 1228 2736 
Q 959 2375 959 1747 
Q 959 1119 1226 758 
Q 1494 397 1959 397 
Q 2419 397 2687 759 
Q 2956 1122 2956 1747 
Q 2956 2369 2687 2733 
Q 2419 3097 1959 3097 
z
M 1959 3584 
Q 2709 3584 3137 3096 
Q 3566 2609 3566 1747 
Q 3566 888 3137 398 
Q 2709 -91 1959 -91 
Q 1206 -91 779 398 
Q 353 888 353 1747 
Q 353 2609 779 3096 
Q 1206 3584 1959 3584 
z
" transform="scale(0.015625)"/>
      <path id="DejaVuSans-64" d="M 2906 2969 
L 2906 4863 
L 3481 4863 
L 3481 0 
L 2906 0 
L 2906 525 
Q 2725 213 2448 61 
Q 2172 -91 1784 -91 
Q 1150 -91 751 415 
Q 353 922 353 1747 
Q 353 2572 751 3078 
Q 1150 3584 1784 3584 
Q 2172 3584 2448 3432 
Q 2725 3281 2906 2969 
z
M 947 1747 
Q 947 1113 1208 752 
Q 1469 391 1925 391 
Q 2381 391 2643 752 
Q 2906 1113 2906 1747 
Q 2906 2381 2643 2742 
Q 2381 3103 1925 3103 
Q 1469 3103 1208 2742 
Q 947 2381 947 1747 
z
" transform="scale(0.015625)"/>
      <path id="DejaVuSans-28" d="M 1984 4856 
Q 1566 4138 1362 3434 
Q 1159 2731 1159 2009 
Q 1159 1288 1364 580 
Q 1569 -128 1984 -844 
L 1484 -844 
Q 1016 -109 783 600 
Q 550 1309 550 2009 
Q 550 2706 781 3412 
Q 1013 4119 1484 4856 
L 1984 4856 
z
" transform="scale(0.015625)"/>
      <path id="DejaVuSans-4c" d="M 628 4666 
L 1259 4666 
L 1259 531 
L 3531 531 
L 3531 0 
L 628 0 
L 628 4666 
z
" transform="scale(0.015625)"/>
      <path id="DejaVuSans-6d" d="M 3328 2828 
Q 3544 3216 3844 3400 
Q 4144 3584 4550 3584 
Q 5097 3584 5394 3201 
Q 5691 2819 5691 2113 
L 5691 0 
L 5113 0 
L 5113 2094 
Q 5113 2597 4934 2840 
Q 4756 3084 4391 3084 
Q 3944 3084 3684 2787 
Q 3425 2491 3425 1978 
L 3425 0 
L 2847 0 
L 2847 2094 
Q 2847 2600 2669 2842 
Q 2491 3084 2119 3084 
Q 1678 3084 1418 2786 
Q 1159 2488 1159 1978 
L 1159 0 
L 581 0 
L 581 3500 
L 1159 3500 
L 1159 2956 
Q 1356 3278 1631 3431 
Q 1906 3584 2284 3584 
Q 2666 3584 2933 3390 
Q 3200 3197 3328 2828 
z
" transform="scale(0.015625)"/>
      <path id="DejaVuSans-62" d="M 3116 1747 
Q 3116 2381 2855 2742 
Q 2594 3103 2138 3103 
Q 1681 3103 1420 2742 
Q 1159 2381 1159 1747 
Q 1159 1113 1420 752 
Q 1681 391 2138 391 
Q 2594 391 2855 752 
Q 3116 1113 3116 1747 
z
M 1159 2969 
Q 1341 3281 1617 3432 
Q 1894 3584 2278 3584 
Q 2916 3584 3314 3078 
Q 3713 2572 3713 1747 
Q 3713 922 3314 415 
Q 2916 -91 2278 -91 
Q 1894 -91 1617 61 
Q 1341 213 1159 525 
L 1159 0 
L 581 0 
L 581 4863 
L 1159 4863 
L 1159 2969 
z
" transform="scale(0.015625)"/>
      <path id="DejaVuSans-72" d="M 2631 2963 
Q 2534 3019 2420 3045 
Q 2306 3072 2169 3072 
Q 1681 3072 1420 2755 
Q 1159 2438 1159 1844 
L 1159 0 
L 581 0 
L 581 3500 
L 1159 3500 
L 1159 2956 
Q 1341 3275 1631 3429 
Q 1922 3584 2338 3584 
Q 2397 3584 2469 3576 
Q 2541 3569 2628 3553 
L 2631 2963 
z
" transform="scale(0.015625)"/>
      <path id="DejaVuSans-53" d="M 3425 4513 
L 3425 3897 
Q 3066 4069 2747 4153 
Q 2428 4238 2131 4238 
Q 1616 4238 1336 4038 
Q 1056 3838 1056 3469 
Q 1056 3159 1242 3001 
Q 1428 2844 1947 2747 
L 2328 2669 
Q 3034 2534 3370 2195 
Q 3706 1856 3706 1288 
Q 3706 609 3251 259 
Q 2797 -91 1919 -91 
Q 1588 -91 1214 -16 
Q 841 59 441 206 
L 441 856 
Q 825 641 1194 531 
Q 1563 422 1919 422 
Q 2459 422 2753 634 
Q 3047 847 3047 1241 
Q 3047 1584 2836 1778 
Q 2625 1972 2144 2069 
L 1759 2144 
Q 1053 2284 737 2584 
Q 422 2884 422 3419 
Q 422 4038 858 4394 
Q 1294 4750 2059 4750 
Q 2388 4750 2728 4690 
Q 3069 4631 3425 4513 
z
" transform="scale(0.015625)"/>
      <path id="DejaVuSans-29" d="M 513 4856 
L 1013 4856 
Q 1481 4119 1714 3412 
Q 1947 2706 1947 2009 
Q 1947 1309 1714 600 
Q 1481 -109 1013 -844 
L 513 -844 
Q 928 -128 1133 580 
Q 1338 1288 1338 2009 
Q 1338 2731 1133 3434 
Q 928 4138 513 4856 
z
" transform="scale(0.015625)"/>
     </defs>
     <use xlink:href="#DejaVuSans-4f"/>
     <use xlink:href="#DejaVuSans-70" transform="translate(78.710938 0)"/>
     <use xlink:href="#DejaVuSans-74" transform="translate(142.1875 0)"/>
     <use xlink:href="#DejaVuSans-69" transform="translate(181.396484 0)"/>
     <use xlink:href="#DejaVuSans-63" transform="translate(209.179688 0)"/>
     <use xlink:href="#DejaVuSans-61" transform="translate(264.160156 0)"/>
     <use xlink:href="#DejaVuSans-6c" transform="translate(325.439453 0)"/>
     <use xlink:href="#DejaVuSans-20" transform="translate(353.222656 0)"/>
     <use xlink:href="#DejaVuSans-43" transform="translate(385.009766 0)"/>
     <use xlink:href="#DejaVuSans-68" transform="translate(454.833984 0)"/>
     <use xlink:href="#DejaVuSans-61" transform="translate(518.212891 0)"/>
     <use xlink:href="#DejaVuSans-6e" transform="translate(579.492188 0)"/>
     <use xlink:href="#DejaVuSans-6e" transform="translate(642.871094 0)"/>
     <use xlink:href="#DejaVuSans-65" transform="translate(706.25 0)"/>
     <use xlink:href="#DejaVuSans-6c" transform="translate(767.773438 0)"/>
     <use xlink:href="#DejaVuSans-20" transform="translate(795.556641 0)"/>
     <use xlink:href="#DejaVuSans-4d" transform="translate(827.34375 0)"/>
     <use xlink:href="#DejaVuSans-6f" transform="translate(913.623047 0)"/>
     <use xlink:href="#DejaVuSans-64" transform="translate(974.804688 0)"/>
     <use xlink:href="#DejaVuSans-65" transform="translate(1038.28125 0)"/>
     <use xlink:href="#DejaVuSans-6c" transform="translate(1099.804688 0)"/>
     <use xlink:href="#DejaVuSans-20" transform="translate(1127.587891 0)"/>
     <use xlink:href="#DejaVuSans-28" transform="translate(1159.375 0)"/>
     <use xlink:href="#DejaVuSans-4c" transform="translate(1198.388672 0)"/>
     <use xlink:href="#DejaVuSans-61" transform="translate(1254.101562 0)"/>
     <use xlink:href="#DejaVuSans-6d" transform="translate(1315.380859 0)"/>
     <use xlink:href="#DejaVuSans-62" transform="translate(1412.792969 0)"/>
     <use xlink:href="#DejaVuSans-65" transform="translate(1476.269531 0)"/>
     <use xlink:href="#DejaVuSans-72" transform="translate(1537.792969 0)"/>
     <use xlink:href="#DejaVuSans-74" transform="translate(1578.90625 0)"/>
     <use xlink:href="#DejaVuSans-69" transform="translate(1618.115234 0)"/>
     <use xlink:href="#DejaVuSans-61" transform="translate(1645.898438 0)"/>
     <use xlink:href="#DejaVuSans-6e" transform="translate(1707.177734 0)"/>
     <use xlink:href="#DejaVuSans-20" transform="translate(1770.556641 0)"/>
     <use xlink:href="#DejaVuSans-4c" transform="translate(1802.34375 0)"/>
     <use xlink:href="#DejaVuSans-4f" transform="translate(1854.431641 0)"/>
     <use xlink:href="#DejaVuSans-53" transform="translate(1933.142578 0)"/>
     <use xlink:href="#DejaVuSans-29" transform="translate(1996.619141 0)"/>
    </g>
   </g>
   <g id="text_2">
    <!-- r = 32.5 cm -->
    <g style="fill: #ff0000" transform="translate(115.171641 66.627656) scale(0.09 -0.09)">
     <defs>
      <path id="DejaVuSans-3d" d="M 678 2906 
L 4684 2906 
L 4684 2381 
L 678 2381 
L 678 2906 
z
M 678 1631 
L 4684 1631 
L 4684 1100 
L 678 1100 
L 678 1631 
z
" transform="scale(0.015625)"/>
      <path id="DejaVuSans-33" d="M 2597 2516 
Q 3050 2419 3304 2112 
Q 3559 1806 3559 1356 
Q 3559 666 3084 287 
Q 2609 -91 1734 -91 
Q 1441 -91 1130 -33 
Q 819 25 488 141 
L 488 750 
Q 750 597 1062 519 
Q 1375 441 1716 441 
Q 2309 441 2620 675 
Q 2931 909 2931 1356 
Q 2931 1769 2642 2001 
Q 2353 2234 1838 2234 
L 1294 2234 
L 1294 2753 
L 1863 2753 
Q 2328 2753 2575 2939 
Q 2822 3125 2822 3475 
Q 2822 3834 2567 4026 
Q 2313 4219 1838 4219 
Q 1578 4219 1281 4162 
Q 984 4106 628 3988 
L 628 4550 
Q 988 4650 1302 4700 
Q 1616 4750 1894 4750 
Q 2613 4750 3031 4423 
Q 3450 4097 3450 3541 
Q 3450 3153 3228 2886 
Q 3006 2619 2597 2516 
z
" transform="scale(0.015625)"/>
      <path id="DejaVuSans-32" d="M 1228 531 
L 3431 531 
L 3431 0 
L 469 0 
L 469 531 
Q 828 903 1448 1529 
Q 2069 2156 2228 2338 
Q 2531 2678 2651 2914 
Q 2772 3150 2772 3378 
Q 2772 3750 2511 3984 
Q 2250 4219 1831 4219 
Q 1534 4219 1204 4116 
Q 875 4013 500 3803 
L 500 4441 
Q 881 4594 1212 4672 
Q 1544 4750 1819 4750 
Q 2544 4750 2975 4387 
Q 3406 4025 3406 3419 
Q 3406 3131 3298 2873 
Q 3191 2616 2906 2266 
Q 2828 2175 2409 1742 
Q 1991 1309 1228 531 
z
" transform="scale(0.015625)"/>
      <path id="DejaVuSans-2e" d="M 684 794 
L 1344 794 
L 1344 0 
L 684 0 
L 684 794 
z
" transform="scale(0.015625)"/>
      <path id="DejaVuSans-35" d="M 691 4666 
L 3169 4666 
L 3169 4134 
L 1269 4134 
L 1269 2991 
Q 1406 3038 1543 3061 
Q 1681 3084 1819 3084 
Q 2600 3084 3056 2656 
Q 3513 2228 3513 1497 
Q 3513 744 3044 326 
Q 2575 -91 1722 -91 
Q 1428 -91 1123 -41 
Q 819 9 494 109 
L 494 744 
Q 775 591 1075 516 
Q 1375 441 1709 441 
Q 2250 441 2565 725 
Q 2881 1009 2881 1497 
Q 2881 1984 2565 2268 
Q 2250 2553 1709 2553 
Q 1456 2553 1204 2497 
Q 953 2441 691 2322 
L 691 4666 
z
" transform="scale(0.015625)"/>
     </defs>
     <use xlink:href="#DejaVuSans-72"/>
     <use xlink:href="#DejaVuSans-20" transform="translate(41.113281 0)"/>
     <use xlink:href="#DejaVuSans-3d" transform="translate(72.900391 0)"/>
     <use xlink:href="#DejaVuSans-20" transform="translate(156.689453 0)"/>
     <use xlink:href="#DejaVuSans-33" transform="translate(188.476562 0)"/>
     <use xlink:href="#DejaVuSans-32" transform="translate(252.099609 0)"/>
     <use xlink:href="#DejaVuSans-2e" transform="translate(315.722656 0)"/>
     <use xlink:href="#DejaVuSans-35" transform="translate(347.509766 0)"/>
     <use xlink:href="#DejaVuSans-20" transform="translate(411.132812 0)"/>
     <use xlink:href="#DejaVuSans-63" transform="translate(442.919922 0)"/>
     <use xlink:href="#DejaVuSans-6d" transform="translate(497.900391 0)"/>
    </g>
    <!-- θ = 0.0°, β = 0.0° -->
    <g style="fill: #ff0000" transform="translate(101.399531 75.408281) scale(0.09 -0.09)">
     <defs>
      <path id="DejaVuSans-3b8" d="M 2953 2219 
L 963 2219 
Q 1009 1284 1225 888 
Q 1494 400 1959 400 
Q 2428 400 2688 891 
Q 2916 1322 2953 2219 
z
M 2944 2750 
Q 2856 3638 2688 3950 
Q 2419 4444 1959 4444 
Q 1481 4444 1228 3956 
Q 1028 3563 969 2750 
L 2944 2750 
z
M 1959 4913 
Q 2709 4913 3138 4250 
Q 3566 3591 3566 2422 
Q 3566 1256 3138 594 
Q 2709 -72 1959 -72 
Q 1206 -72 781 594 
Q 353 1256 353 2422 
Q 353 3591 781 4250 
Q 1206 4913 1959 4913 
z
" transform="scale(0.015625)"/>
      <path id="DejaVuSans-30" d="M 2034 4250 
Q 1547 4250 1301 3770 
Q 1056 3291 1056 2328 
Q 1056 1369 1301 889 
Q 1547 409 2034 409 
Q 2525 409 2770 889 
Q 3016 1369 3016 2328 
Q 3016 3291 2770 3770 
Q 2525 4250 2034 4250 
z
M 2034 4750 
Q 2819 4750 3233 4129 
Q 3647 3509 3647 2328 
Q 3647 1150 3233 529 
Q 2819 -91 2034 -91 
Q 1250 -91 836 529 
Q 422 1150 422 2328 
Q 422 3509 836 4129 
Q 1250 4750 2034 4750 
z
" transform="scale(0.015625)"/>
      <path id="DejaVuSans-b0" d="M 1600 4347 
Q 1350 4347 1178 4173 
Q 1006 4000 1006 3750 
Q 1006 3503 1178 3333 
Q 1350 3163 1600 3163 
Q 1850 3163 2022 3333 
Q 2194 3503 2194 3750 
Q 2194 3997 2020 4172 
Q 1847 4347 1600 4347 
z
M 1600 4750 
Q 1800 4750 1984 4673 
Q 2169 4597 2303 4453 
Q 2447 4313 2519 4134 
Q 2591 3956 2591 3750 
Q 2591 3338 2302 3052 
Q 2013 2766 1594 2766 
Q 1172 2766 890 3047 
Q 609 3328 609 3750 
Q 609 4169 896 4459 
Q 1184 4750 1600 4750 
z
" transform="scale(0.015625)"/>
      <path id="DejaVuSans-2c" d="M 750 794 
L 1409 794 
L 1409 256 
L 897 -744 
L 494 -744 
L 750 256 
L 750 794 
z
" transform="scale(0.015625)"/>
      <path id="DejaVuSans-3b2" d="M 1178 216 
L 1178 -1331 
L 600 -1331 
L 600 3478 
Q 600 4903 1931 4903 
Q 3288 4903 3288 3700 
Q 3288 2844 2750 2531 
Q 3625 2250 3625 1416 
Q 3625 -66 2119 -66 
Q 1456 -66 1178 216 
z
M 1178 966 
Q 1525 425 2141 425 
Q 3041 425 3041 1406 
Q 3041 2288 1591 2219 
L 1591 2750 
Q 2725 2750 2725 3750 
Q 2725 4434 1994 4434 
Q 1178 4434 1178 3459 
L 1178 966 
z
" transform="scale(0.015625)"/>
     </defs>
     <use xlink:href="#DejaVuSans-3b8"/>
     <use xlink:href="#DejaVuSans-20" transform="translate(61.181641 0)"/>
     <use xlink:href="#DejaVuSans-3d" transform="translate(92.96875 0)"/>
     <use xlink:href="#DejaVuSans-20" transform="translate(176.757812 0)"/>
     <use xlink:href="#DejaVuSans-30" transform="translate(208.544922 0)"/>
     <use xlink:href="#DejaVuSans-2e" transform="translate(272.167969 0)"/>
     <use xlink:href="#DejaVuSans-30" transform="translate(303.955078 0)"/>
     <use xlink:href="#DejaVuSans-b0" transform="translate(367.578125 0)"/>
     <use xlink:href="#DejaVuSans-2c" transform="translate(417.578125 0)"/>
     <use xlink:href="#DejaVuSans-20" transform="translate(449.365234 0)"/>
     <use xlink:href="#DejaVuSans-3b2" transform="translate(481.152344 0)"/>
     <use xlink:href="#DejaVuSans-20" transform="translate(544.970703 0)"/>
     <use xlink:href="#DejaVuSans-3d" transform="translate(576.757812 0)"/>
     <use xlink:href="#DejaVuSans-20" transform="translate(660.546875 0)"/>
     <use xlink:href="#DejaVuSans-30" transform="translate(692.333984 0)"/>
     <use xlink:href="#DejaVuSans-2e" transform="translate(755.957031 0)"/>
     <use xlink:href="#DejaVuSans-30" transform="translate(787.744141 0)"/>
     <use xlink:href="#DejaVuSans-b0" transform="translate(851.367188 0)"/>
    </g>
   </g>
   <g id="text_3">
    <!-- RX (PV) -->
    <g transform="translate(234.9 72.01625) scale(0.08 -0.08)">
     <defs>
      <path id="DejaVuSans-52" d="M 2841 2188 
Q 3044 2119 3236 1894 
Q 3428 1669 3622 1275 
L 4263 0 
L 3584 0 
L 2988 1197 
Q 2756 1666 2539 1819 
Q 2322 1972 1947 1972 
L 1259 1972 
L 1259 0 
L 628 0 
L 628 4666 
L 2053 4666 
Q 2853 4666 3247 4331 
Q 3641 3997 3641 3322 
Q 3641 2881 3436 2590 
Q 3231 2300 2841 2188 
z
M 1259 4147 
L 1259 2491 
L 2053 2491 
Q 2509 2491 2742 2702 
Q 2975 2913 2975 3322 
Q 2975 3731 2742 3939 
Q 2509 4147 2053 4147 
L 1259 4147 
z
" transform="scale(0.015625)"/>
      <path id="DejaVuSans-58" d="M 403 4666 
L 1081 4666 
L 2241 2931 
L 3406 4666 
L 4084 4666 
L 2584 2425 
L 4184 0 
L 3506 0 
L 2194 1984 
L 872 0 
L 191 0 
L 1856 2491 
L 403 4666 
z
" transform="scale(0.015625)"/>
      <path id="DejaVuSans-50" d="M 1259 4147 
L 1259 2394 
L 2053 2394 
Q 2494 2394 2734 2622 
Q 2975 2850 2975 3272 
Q 2975 3691 2734 3919 
Q 2494 4147 2053 4147 
L 1259 4147 
z
M 628 4666 
L 2053 4666 
Q 2838 4666 3239 4311 
Q 3641 3956 3641 3272 
Q 3641 2581 3239 2228 
Q 2838 1875 2053 1875 
L 1259 1875 
L 1259 0 
L 628 0 
L 628 4666 
z
" transform="scale(0.015625)"/>
      <path id="DejaVuSans-56" d="M 1831 0 
L 50 4666 
L 709 4666 
L 2188 738 
L 3669 4666 
L 4325 4666 
L 2547 0 
L 1831 0 
z
" transform="scale(0.015625)"/>
     </defs>
     <use xlink:href="#DejaVuSans-52"/>
     <use xlink:href="#DejaVuSans-58" transform="translate(69.482422 0)"/>
     <use xlink:href="#DejaVuSans-20" transform="translate(137.988281 0)"/>
     <use xlink:href="#DejaVuSans-28" transform="translate(169.775391 0)"/>
     <use xlink:href="#DejaVuSans-50" transform="translate(208.789062 0)"/>
     <use xlink:href="#DejaVuSans-56" transform="translate(269.091797 0)"/>
     <use xlink:href="#DejaVuSans-29" transform="translate(337.5 0)"/>
    </g>
   </g>
   <g id="text_4">
    <!-- $m$ = −ln(2)/ln(cos(α½)) = 55.95 -->
    <g transform="translate(55.56 147.713437) scale(0.09 -0.09)">
     <defs>
      <path id="DejaVuSans-Oblique-6d" d="M 5747 2113 
L 5338 0 
L 4763 0 
L 5166 2094 
Q 5191 2228 5203 2325 
Q 5216 2422 5216 2491 
Q 5216 2772 5059 2928 
Q 4903 3084 4622 3084 
Q 4203 3084 3875 2770 
Q 3547 2456 3450 1953 
L 3066 0 
L 2491 0 
L 2900 2094 
Q 2925 2209 2937 2307 
Q 2950 2406 2950 2484 
Q 2950 2769 2794 2926 
Q 2638 3084 2363 3084 
Q 1938 3084 1609 2770 
Q 1281 2456 1184 1953 
L 800 0 
L 225 0 
L 909 3500 
L 1484 3500 
L 1375 2956 
Q 1609 3263 1923 3423 
Q 2238 3584 2597 3584 
Q 2978 3584 3223 3384 
Q 3469 3184 3519 2828 
Q 3781 3197 4126 3390 
Q 4472 3584 4856 3584 
Q 5306 3584 5551 3325 
Q 5797 3066 5797 2591 
Q 5797 2488 5784 2364 
Q 5772 2241 5747 2113 
z
" transform="scale(0.015625)"/>
      <path id="DejaVuSans-2212" d="M 678 2272 
L 4684 2272 
L 4684 1741 
L 678 1741 
L 678 2272 
z
" transform="scale(0.015625)"/>
      <path id="DejaVuSans-2f" d="M 1625 4666 
L 2156 4666 
L 531 -594 
L 0 -594 
L 1625 4666 
z
" transform="scale(0.015625)"/>
      <path id="DejaVuSans-73" d="M 2834 3397 
L 2834 2853 
Q 2591 2978 2328 3040 
Q 2066 3103 1784 3103 
Q 1356 3103 1142 2972 
Q 928 2841 928 2578 
Q 928 2378 1081 2264 
Q 1234 2150 1697 2047 
L 1894 2003 
Q 2506 1872 2764 1633 
Q 3022 1394 3022 966 
Q 3022 478 2636 193 
Q 2250 -91 1575 -91 
Q 1294 -91 989 -36 
Q 684 19 347 128 
L 347 722 
Q 666 556 975 473 
Q 1284 391 1588 391 
Q 1994 391 2212 530 
Q 2431 669 2431 922 
Q 2431 1156 2273 1281 
Q 2116 1406 1581 1522 
L 1381 1569 
Q 847 1681 609 1914 
Q 372 2147 372 2553 
Q 372 3047 722 3315 
Q 1072 3584 1716 3584 
Q 2034 3584 2315 3537 
Q 2597 3491 2834 3397 
z
" transform="scale(0.015625)"/>
      <path id="DejaVuSans-3b1" d="M 2644 1628 
L 2506 2350 
Q 2366 3091 1809 3091 
Q 1391 3091 1200 2747 
Q 959 2316 959 1747 
Q 959 1059 1194 731 
Q 1431 397 1809 397 
Q 2228 397 2453 1063 
L 2644 1628 
z
M 2966 2584 
L 3275 3500 
L 3788 3500 
L 3147 1603 
L 3272 919 
Q 3300 766 3409 638 
Q 3538 488 3638 488 
L 3913 488 
L 3913 0 
L 3569 0 
Q 3275 0 3013 263 
Q 2884 394 2831 669 
Q 2688 322 2394 50 
Q 2256 -78 1809 -78 
Q 1075 -78 719 397 
Q 353 888 353 1747 
Q 353 2666 750 3097 
Q 1191 3578 1809 3578 
Q 2781 3578 2966 2584 
z
" transform="scale(0.015625)"/>
      <path id="DejaVuSans-bd" d="M 488 2431 
L 1125 2431 
L 1125 4341 
L 428 4213 
L 428 4575 
L 1147 4697 
L 1575 4697 
L 1575 2431 
L 2216 2431 
L 2216 2088 
L 488 2088 
L 488 2431 
z
M 4470 332 
L 5795 332 
L 5795 -24 
L 3926 -24 
L 3926 319 
Q 4032 416 4229 591 
Q 5304 1544 5304 1838 
Q 5304 2044 5141 2170 
Q 4979 2297 4713 2297 
Q 4551 2297 4360 2242 
Q 4170 2188 3945 2079 
L 3945 2463 
Q 4185 2551 4393 2594 
Q 4601 2638 4779 2638 
Q 5232 2638 5504 2432 
Q 5776 2226 5776 1888 
Q 5776 1454 4741 566 
Q 4566 416 4470 332 
z
M 4309 4750 
L 4809 4750 
L 1896 -91 
L 1396 -91 
L 4309 4750 
z
" transform="scale(0.015625)"/>
      <path id="DejaVuSans-39" d="M 703 97 
L 703 672 
Q 941 559 1184 500 
Q 1428 441 1663 441 
Q 2288 441 2617 861 
Q 2947 1281 2994 2138 
Q 2813 1869 2534 1725 
Q 2256 1581 1919 1581 
Q 1219 1581 811 2004 
Q 403 2428 403 3163 
Q 403 3881 828 4315 
Q 1253 4750 1959 4750 
Q 2769 4750 3195 4129 
Q 3622 3509 3622 2328 
Q 3622 1225 3098 567 
Q 2575 -91 1691 -91 
Q 1453 -91 1209 -44 
Q 966 3 703 97 
z
M 1959 2075 
Q 2384 2075 2632 2365 
Q 2881 2656 2881 3163 
Q 2881 3666 2632 3958 
Q 2384 4250 1959 4250 
Q 1534 4250 1286 3958 
Q 1038 3666 1038 3163 
Q 1038 2656 1286 2365 
Q 1534 2075 1959 2075 
z
" transform="scale(0.015625)"/>
     </defs>
     <use xlink:href="#DejaVuSans-Oblique-6d" transform="translate(0 0.015625)"/>
     <use xlink:href="#DejaVuSans-20" transform="translate(97.412109 0.015625)"/>
     <use xlink:href="#DejaVuSans-3d" transform="translate(129.199219 0.015625)"/>
     <use xlink:href="#DejaVuSans-20" transform="translate(212.988281 0.015625)"/>
     <use xlink:href="#DejaVuSans-2212" transform="translate(244.775391 0.015625)"/>
     <use xlink:href="#DejaVuSans-6c" transform="translate(328.564453 0.015625)"/>
     <use xlink:href="#DejaVuSans-6e" transform="translate(356.347656 0.015625)"/>
     <use xlink:href="#DejaVuSans-28" transform="translate(419.726562 0.015625)"/>
     <use xlink:href="#DejaVuSans-32" transform="translate(458.740234 0.015625)"/>
     <use xlink:href="#DejaVuSans-29" transform="translate(522.363281 0.015625)"/>
     <use xlink:href="#DejaVuSans-2f" transform="translate(561.376953 0.015625)"/>
     <use xlink:href="#DejaVuSans-6c" transform="translate(595.068359 0.015625)"/>
     <use xlink:href="#DejaVuSans-6e" transform="translate(622.851562 0.015625)"/>
     <use xlink:href="#DejaVuSans-28" transform="translate(686.230469 0.015625)"/>
     <use xlink:href="#DejaVuSans-63" transform="translate(725.244141 0.015625)"/>
     <use xlink:href="#DejaVuSans-6f" transform="translate(780.224609 0.015625)"/>
     <use xlink:href="#DejaVuSans-73" transform="translate(841.40625 0.015625)"/>
     <use xlink:href="#DejaVuSans-28" transform="translate(893.505859 0.015625)"/>
     <use xlink:href="#DejaVuSans-3b1" transform="translate(932.519531 0.015625)"/>
     <use xlink:href="#DejaVuSans-bd" transform="translate(998.4375 0.015625)"/>
     <use xlink:href="#DejaVuSans-29" transform="translate(1095.361328 0.015625)"/>
     <use xlink:href="#DejaVuSans-29" transform="translate(1134.375 0.015625)"/>
     <use xlink:href="#DejaVuSans-20" transform="translate(1173.388672 0.015625)"/>
     <use xlink:href="#DejaVuSans-3d" transform="translate(1205.175781 0.015625)"/>
     <use xlink:href="#DejaVuSans-20" transform="translate(1288.964844 0.015625)"/>
     <use xlink:href="#DejaVuSans-35" transform="translate(1320.751953 0.015625)"/>
     <use xlink:href="#DejaVuSans-35" transform="translate(1384.375 0.015625)"/>
     <use xlink:href="#DejaVuSans-2e" transform="translate(1447.998047 0.015625)"/>
     <use xlink:href="#DejaVuSans-39" transform="translate(1479.785156 0.015625)"/>
     <use xlink:href="#DejaVuSans-35" transform="translate(1543.408203 0.015625)"/>
    </g>
    <!-- $G_{op}$ = (m+1)/(2πr²) · cos$^m$(θ) · cos(β) · A = 7.7234e-02 -->
    <g transform="translate(55.56 156.605156) scale(0.09 -0.09)">
     <defs>
      <path id="DejaVuSans-Oblique-47" d="M 3494 697 
L 3738 1919 
L 2700 1919 
L 2797 2438 
L 4453 2438 
L 4050 384 
Q 3634 156 3143 32 
Q 2653 -91 2156 -91 
Q 1278 -91 783 396 
Q 288 884 288 1753 
Q 288 2475 589 3126 
Q 891 3778 1422 4213 
Q 1756 4484 2153 4617 
Q 2550 4750 3034 4750 
Q 3472 4750 3873 4639 
Q 4275 4528 4641 4306 
L 4513 3634 
Q 4231 3928 3853 4083 
Q 3475 4238 3047 4238 
Q 2550 4238 2172 4048 
Q 1794 3859 1497 3463 
Q 1244 3125 1098 2667 
Q 953 2209 953 1734 
Q 953 1081 1287 751 
Q 1622 422 2284 422 
Q 2616 422 2925 492 
Q 3234 563 3494 697 
z
" transform="scale(0.015625)"/>
      <path id="DejaVuSans-Oblique-6f" d="M 1625 -91 
Q 1009 -91 651 289 
Q 294 669 294 1325 
Q 294 1706 417 2101 
Q 541 2497 738 2766 
Q 1047 3184 1428 3384 
Q 1809 3584 2291 3584 
Q 2888 3584 3255 3212 
Q 3622 2841 3622 2241 
Q 3622 1825 3500 1412 
Q 3378 1000 3181 728 
Q 2875 309 2494 109 
Q 2113 -91 1625 -91 
z
M 891 1344 
Q 891 869 1089 633 
Q 1288 397 1691 397 
Q 2269 397 2648 901 
Q 3028 1406 3028 2181 
Q 3028 2634 2825 2865 
Q 2622 3097 2228 3097 
Q 1903 3097 1650 2945 
Q 1397 2794 1197 2484 
Q 1050 2253 970 1956 
Q 891 1659 891 1344 
z
" transform="scale(0.015625)"/>
      <path id="DejaVuSans-Oblique-70" d="M 3175 2156 
Q 3175 2616 2975 2859 
Q 2775 3103 2400 3103 
Q 2144 3103 1911 2972 
Q 1678 2841 1497 2591 
Q 1319 2344 1212 1994 
Q 1106 1644 1106 1300 
Q 1106 863 1306 627 
Q 1506 391 1875 391 
Q 2147 391 2380 519 
Q 2613 647 2778 891 
Q 2956 1147 3065 1494 
Q 3175 1841 3175 2156 
z
M 1394 2969 
Q 1625 3272 1939 3428 
Q 2253 3584 2638 3584 
Q 3175 3584 3472 3232 
Q 3769 2881 3769 2247 
Q 3769 1728 3584 1258 
Q 3400 788 3053 416 
Q 2822 169 2531 39 
Q 2241 -91 1919 -91 
Q 1547 -91 1294 64 
Q 1041 219 916 525 
L 556 -1331 
L -19 -1331 
L 922 3500 
L 1497 3500 
L 1394 2969 
z
" transform="scale(0.015625)"/>
      <path id="DejaVuSans-2b" d="M 2944 4013 
L 2944 2272 
L 4684 2272 
L 4684 1741 
L 2944 1741 
L 2944 0 
L 2419 0 
L 2419 1741 
L 678 1741 
L 678 2272 
L 2419 2272 
L 2419 4013 
L 2944 4013 
z
" transform="scale(0.015625)"/>
      <path id="DejaVuSans-31" d="M 794 531 
L 1825 531 
L 1825 4091 
L 703 3866 
L 703 4441 
L 1819 4666 
L 2450 4666 
L 2450 531 
L 3481 531 
L 3481 0 
L 794 0 
L 794 531 
z
" transform="scale(0.015625)"/>
      <path id="DejaVuSans-3c0" d="M 231 3500 
L 3584 3500 
L 3584 2925 
L 3144 2925 
L 3144 775 
Q 3144 550 3220 451 
Q 3297 353 3469 353 
Q 3516 353 3584 361 
Q 3653 369 3675 372 
L 3675 -44 
Q 3566 -84 3450 -103 
Q 3334 -122 3219 -122 
Q 2844 -122 2700 83 
Q 2556 288 2556 838 
L 2556 2925 
L 1266 2925 
L 1266 0 
L 678 0 
L 678 2925 
L 231 2925 
L 231 3500 
z
" transform="scale(0.015625)"/>
      <path id="DejaVuSans-b2" d="M 838 2444 
L 2163 2444 
L 2163 2088 
L 294 2088 
L 294 2431 
Q 400 2528 597 2703 
Q 1672 3656 1672 3950 
Q 1672 4156 1509 4282 
Q 1347 4409 1081 4409 
Q 919 4409 728 4354 
Q 538 4300 313 4191 
L 313 4575 
Q 553 4663 761 4706 
Q 969 4750 1147 4750 
Q 1600 4750 1872 4544 
Q 2144 4338 2144 4000 
Q 2144 3566 1109 2678 
Q 934 2528 838 2444 
z
" transform="scale(0.015625)"/>
      <path id="DejaVuSans-b7" d="M 684 2619 
L 1344 2619 
L 1344 1825 
L 684 1825 
L 684 2619 
z
" transform="scale(0.015625)"/>
      <path id="DejaVuSans-41" d="M 2188 4044 
L 1331 1722 
L 3047 1722 
L 2188 4044 
z
M 1831 4666 
L 2547 4666 
L 4325 0 
L 3669 0 
L 3244 1197 
L 1141 1197 
L 716 0 
L 50 0 
L 1831 4666 
z
" transform="scale(0.015625)"/>
      <path id="DejaVuSans-37" d="M 525 4666 
L 3525 4666 
L 3525 4397 
L 1831 0 
L 1172 0 
L 2766 4134 
L 525 4134 
L 525 4666 
z
" transform="scale(0.015625)"/>
      <path id="DejaVuSans-34" d="M 2419 4116 
L 825 1625 
L 2419 1625 
L 2419 4116 
z
M 2253 4666 
L 3047 4666 
L 3047 1625 
L 3713 1625 
L 3713 1100 
L 3047 1100 
L 3047 0 
L 2419 0 
L 2419 1100 
L 313 1100 
L 313 1709 
L 2253 4666 
z
" transform="scale(0.015625)"/>
      <path id="DejaVuSans-2d" d="M 313 2009 
L 1997 2009 
L 1997 1497 
L 313 1497 
L 313 2009 
z
" transform="scale(0.015625)"/>
     </defs>
     <use xlink:href="#DejaVuSans-Oblique-47" transform="translate(0 0.51875)"/>
     <use xlink:href="#DejaVuSans-Oblique-6f" transform="translate(77.490234 -15.8875) scale(0.7)"/>
     <use xlink:href="#DejaVuSans-Oblique-70" transform="translate(120.317383 -15.8875) scale(0.7)"/>
     <use xlink:href="#DejaVuSans-20" transform="translate(167.485352 0.51875)"/>
     <use xlink:href="#DejaVuSans-3d" transform="translate(199.272461 0.51875)"/>
     <use xlink:href="#DejaVuSans-20" transform="translate(283.061523 0.51875)"/>
     <use xlink:href="#DejaVuSans-28" transform="translate(314.848633 0.51875)"/>
     <use xlink:href="#DejaVuSans-6d" transform="translate(353.862305 0.51875)"/>
     <use xlink:href="#DejaVuSans-2b" transform="translate(451.274414 0.51875)"/>
     <use xlink:href="#DejaVuSans-31" transform="translate(535.063477 0.51875)"/>
     <use xlink:href="#DejaVuSans-29" transform="translate(598.686523 0.51875)"/>
     <use xlink:href="#DejaVuSans-2f" transform="translate(637.700195 0.51875)"/>
     <use xlink:href="#DejaVuSans-28" transform="translate(671.391602 0.51875)"/>
     <use xlink:href="#DejaVuSans-32" transform="translate(710.405273 0.51875)"/>
     <use xlink:href="#DejaVuSans-3c0" transform="translate(774.02832 0.51875)"/>
     <use xlink:href="#DejaVuSans-72" transform="translate(834.233398 0.51875)"/>
     <use xlink:href="#DejaVuSans-b2" transform="translate(875.34668 0.51875)"/>
     <use xlink:href="#DejaVuSans-29" transform="translate(915.43457 0.51875)"/>
     <use xlink:href="#DejaVuSans-20" transform="translate(954.448242 0.51875)"/>
     <use xlink:href="#DejaVuSans-b7" transform="translate(986.235352 0.51875)"/>
     <use xlink:href="#DejaVuSans-20" transform="translate(1018.022461 0.51875)"/>
     <use xlink:href="#DejaVuSans-63" transform="translate(1049.80957 0.51875)"/>
     <use xlink:href="#DejaVuSans-6f" transform="translate(1104.790039 0.51875)"/>
     <use xlink:href="#DejaVuSans-73" transform="translate(1165.97168 0.51875)"/>
     <use xlink:href="#DejaVuSans-Oblique-6d" transform="translate(1219.02832 38.8) scale(0.7)"/>
     <use xlink:href="#DejaVuSans-28" transform="translate(1289.951172 0.51875)"/>
     <use xlink:href="#DejaVuSans-3b8" transform="translate(1328.964844 0.51875)"/>
     <use xlink:href="#DejaVuSans-29" transform="translate(1390.146484 0.51875)"/>
     <use xlink:href="#DejaVuSans-20" transform="translate(1429.160156 0.51875)"/>
     <use xlink:href="#DejaVuSans-b7" transform="translate(1460.947266 0.51875)"/>
     <use xlink:href="#DejaVuSans-20" transform="translate(1492.734375 0.51875)"/>
     <use xlink:href="#DejaVuSans-63" transform="translate(1524.521484 0.51875)"/>
     <use xlink:href="#DejaVuSans-6f" transform="translate(1579.501953 0.51875)"/>
     <use xlink:href="#DejaVuSans-73" transform="translate(1640.683594 0.51875)"/>
     <use xlink:href="#DejaVuSans-28" transform="translate(1692.783203 0.51875)"/>
     <use xlink:href="#DejaVuSans-3b2" transform="translate(1731.796875 0.51875)"/>
     <use xlink:href="#DejaVuSans-29" transform="translate(1795.615234 0.51875)"/>
     <use xlink:href="#DejaVuSans-20" transform="translate(1834.628906 0.51875)"/>
     <use xlink:href="#DejaVuSans-b7" transform="translate(1866.416016 0.51875)"/>
     <use xlink:href="#DejaVuSans-20" transform="translate(1898.203125 0.51875)"/>
     <use xlink:href="#DejaVuSans-41" transform="translate(1929.990234 0.51875)"/>
     <use xlink:href="#DejaVuSans-20" transform="translate(1998.398438 0.51875)"/>
     <use xlink:href="#DejaVuSans-3d" transform="translate(2030.185547 0.51875)"/>
     <use xlink:href="#DejaVuSans-20" transform="translate(2113.974609 0.51875)"/>
     <use xlink:href="#DejaVuSans-37" transform="translate(2145.761719 0.51875)"/>
     <use xlink:href="#DejaVuSans-2e" transform="translate(2209.384766 0.51875)"/>
     <use xlink:href="#DejaVuSans-37" transform="translate(2233.421875 0.51875)"/>
     <use xlink:href="#DejaVuSans-32" transform="translate(2297.044922 0.51875)"/>
     <use xlink:href="#DejaVuSans-33" transform="translate(2360.667969 0.51875)"/>
     <use xlink:href="#DejaVuSans-34" transform="translate(2424.291016 0.51875)"/>
     <use xlink:href="#DejaVuSans-65" transform="translate(2487.914062 0.51875)"/>
     <use xlink:href="#DejaVuSans-2d" transform="translate(2549.4375 0.51875)"/>
     <use xlink:href="#DejaVuSans-30" transform="translate(2585.521484 0.51875)"/>
     <use xlink:href="#DejaVuSans-32" transform="translate(2649.144531 0.51875)"/>
    </g>
    <!-- $A_{rx}$ = 9.0 cm²  |  α½ = 9.0° -->
    <g transform="translate(55.56 166.325156) scale(0.09 -0.09)">
     <defs>
      <path id="DejaVuSans-Oblique-41" d="M 2356 4666 
L 3072 4666 
L 3938 0 
L 3278 0 
L 3084 1197 
L 984 1197 
L 325 0 
L -341 0 
L 2356 4666 
z
M 2584 4044 
L 1275 1722 
L 2988 1722 
L 2584 4044 
z
" transform="scale(0.015625)"/>
      <path id="DejaVuSans-Oblique-72" d="M 2853 2969 
Q 2766 3016 2653 3041 
Q 2541 3066 2413 3066 
Q 1953 3066 1609 2717 
Q 1266 2369 1153 1784 
L 800 0 
L 225 0 
L 909 3500 
L 1484 3500 
L 1375 2956 
Q 1603 3259 1920 3421 
Q 2238 3584 2597 3584 
Q 2691 3584 2781 3573 
Q 2872 3563 2963 3538 
L 2853 2969 
z
" transform="scale(0.015625)"/>
      <path id="DejaVuSans-Oblique-78" d="M 3841 3500 
L 2234 1784 
L 3219 0 
L 2559 0 
L 1819 1388 
L 531 0 
L -166 0 
L 1556 1844 
L 641 3500 
L 1300 3500 
L 1972 2234 
L 3144 3500 
L 3841 3500 
z
" transform="scale(0.015625)"/>
      <path id="DejaVuSans-7c" d="M 1344 4891 
L 1344 -1509 
L 813 -1509 
L 813 4891 
L 1344 4891 
z
" transform="scale(0.015625)"/>
     </defs>
     <use xlink:href="#DejaVuSans-Oblique-41" transform="translate(0 0.578125)"/>
     <use xlink:href="#DejaVuSans-Oblique-72" transform="translate(68.408203 -15.828125) scale(0.7)"/>
     <use xlink:href="#DejaVuSans-Oblique-78" transform="translate(97.1875 -15.828125) scale(0.7)"/>
     <use xlink:href="#DejaVuSans-20" transform="translate(141.347656 0.578125)"/>
     <use xlink:href="#DejaVuSans-3d" transform="translate(173.134766 0.578125)"/>
     <use xlink:href="#DejaVuSans-20" transform="translate(256.923828 0.578125)"/>
     <use xlink:href="#DejaVuSans-39" transform="translate(288.710938 0.578125)"/>
     <use xlink:href="#DejaVuSans-2e" transform="translate(352.333984 0.578125)"/>
     <use xlink:href="#DejaVuSans-30" transform="translate(384.121094 0.578125)"/>
     <use xlink:href="#DejaVuSans-20" transform="translate(447.744141 0.578125)"/>
     <use xlink:href="#DejaVuSans-63" transform="translate(479.53125 0.578125)"/>
     <use xlink:href="#DejaVuSans-6d" transform="translate(534.511719 0.578125)"/>
     <use xlink:href="#DejaVuSans-b2" transform="translate(631.923828 0.578125)"/>
     <use xlink:href="#DejaVuSans-20" transform="translate(672.011719 0.578125)"/>
     <use xlink:href="#DejaVuSans-20" transform="translate(703.798828 0.578125)"/>
     <use xlink:href="#DejaVuSans-7c" transform="translate(735.585938 0.578125)"/>
     <use xlink:href="#DejaVuSans-20" transform="translate(769.277344 0.578125)"/>
     <use xlink:href="#DejaVuSans-20" transform="translate(801.064453 0.578125)"/>
     <use xlink:href="#DejaVuSans-3b1" transform="translate(832.851562 0.578125)"/>
     <use xlink:href="#DejaVuSans-bd" transform="translate(898.769531 0.578125)"/>
     <use xlink:href="#DejaVuSans-20" transform="translate(995.693359 0.578125)"/>
     <use xlink:href="#DejaVuSans-3d" transform="translate(1027.480469 0.578125)"/>
     <use xlink:href="#DejaVuSans-20" transform="translate(1111.269531 0.578125)"/>
     <use xlink:href="#DejaVuSans-39" transform="translate(1143.056641 0.578125)"/>
     <use xlink:href="#DejaVuSans-2e" transform="translate(1206.679688 0.578125)"/>
     <use xlink:href="#DejaVuSans-30" transform="translate(1238.466797 0.578125)"/>
     <use xlink:href="#DejaVuSans-b0" transform="translate(1302.089844 0.578125)"/>
    </g>
   </g>
   <g id="patch_6">
    <path d="M 51.96 88.98 
C 52.676048 88.98 53.362866 88.695511 53.869188 88.189188 
C 54.375511 87.682866 54.66 86.996048 54.66 86.28 
C 54.66 85.563952 54.375511 84.877134 53.869188 84.370812 
C 53.362866 83.864489 52.676048 83.58 51.96 83.58 
C 51.243952 83.58 50.557134 83.864489 50.050812 84.370812 
C 49.544489 84.877134 49.26 85.563952 49.26 86.28 
C 49.26 86.996048 49.544489 87.682866 50.050812 88.189188 
C 50.557134 88.695511 51.243952 88.98 51.96 88.98 
z
" clip-path="url(#p284f4b09f4)" style="stroke: #000000; stroke-width: 2; stroke-linejoin: miter"/>
   </g>
   <g id="text_5">
    <!-- TX (LED) -->
    <g transform="translate(2.130312 89.039375) scale(0.1 -0.1)">
     <defs>
      <path id="DejaVuSans-54" d="M -19 4666 
L 3928 4666 
L 3928 4134 
L 2272 4134 
L 2272 0 
L 1638 0 
L 1638 4134 
L -19 4134 
L -19 4666 
z
" transform="scale(0.015625)"/>
      <path id="DejaVuSans-45" d="M 628 4666 
L 3578 4666 
L 3578 4134 
L 1259 4134 
L 1259 2753 
L 3481 2753 
L 3481 2222 
L 1259 2222 
L 1259 531 
L 3634 531 
L 3634 0 
L 628 0 
L 628 4666 
z
" transform="scale(0.015625)"/>
      <path id="DejaVuSans-44" d="M 1259 4147 
L 1259 519 
L 2022 519 
Q 2988 519 3436 956 
Q 3884 1394 3884 2338 
Q 3884 3275 3436 3711 
Q 2988 4147 2022 4147 
L 1259 4147 
z
M 628 4666 
L 1925 4666 
Q 3281 4666 3915 4102 
Q 4550 3538 4550 2338 
Q 4550 1131 3912 565 
Q 3275 0 1925 0 
L 628 0 
L 628 4666 
z
" transform="scale(0.015625)"/>
     </defs>
     <use xlink:href="#DejaVuSans-54"/>
     <use xlink:href="#DejaVuSans-58" transform="translate(61.083984 0)"/>
     <use xlink:href="#DejaVuSans-20" transform="translate(129.589844 0)"/>
     <use xlink:href="#DejaVuSans-28" transform="translate(161.376953 0)"/>
     <use xlink:href="#DejaVuSans-4c" transform="translate(200.390625 0)"/>
     <use xlink:href="#DejaVuSans-45" transform="translate(256.103516 0)"/>
     <use xlink:href="#DejaVuSans-44" transform="translate(319.287109 0)"/>
     <use xlink:href="#DejaVuSans-29" transform="translate(396.289062 0)"/>
    </g>
   </g>
   <g id="patch_7">
    <path d="M 303.96 88.98 
C 304.676048 88.98 305.362866 88.695511 305.869188 88.189188 
C 306.375511 87.682866 306.66 86.996048 306.66 86.28 
C 306.66 85.563952 306.375511 84.877134 305.869188 84.370812 
C 305.362866 83.864489 304.676048 83.58 303.96 83.58 
C 303.243952 83.58 302.557134 83.864489 302.050812 84.370812 
C 301.544489 84.877134 301.26 85.563952 301.26 86.28 
C 301.26 86.996048 301.544489 87.682866 302.050812 88.189188 
C 302.557134 88.695511 303.243952 88.98 303.96 88.98 
z
" clip-path="url(#p284f4b09f4)" style="stroke: #000000; stroke-width: 2; stroke-linejoin: miter"/>
   </g>
   <g id="text_6">
    <!-- $A_{rx}$ -->
    <g transform="translate(310.26 89.039375) scale(0.1 -0.1)">
     <use xlink:href="#DejaVuSans-Oblique-41" transform="translate(0 0.09375)"/>
     <use xlink:href="#DejaVuSans-Oblique-72" transform="translate(68.408203 -16.3125) scale(0.7)"/>
     <use xlink:href="#DejaVuSans-Oblique-78" transform="translate(97.1875 -16.3125) scale(0.7)"/>
    </g>
   </g>
  </g>
 </g>
 <defs>
  <clipPath id="p284f4b09f4">
   <rect x="0" y="-0" width="332.58" height="172.86"/>
  </clipPath>
 </defs>
</svg>
