<?xml version="1.0" encoding="utf-8" standalone="no"?>
<!DOCTYPE svg PUBLIC "-//W3C//DTD SVG 1.1//EN"
  "http://www.w3.org/Graphics/SVG/1.1/DTD/svg11.dtd">
<svg xmlns:xlink="http://www.w3.org/1999/xlink" width="676.884pt" height="184.56pt" viewBox="0 0 676.884 184.56" xmlns="http://www.w3.org/2000/svg" version="1.1">
 <metadata>
  <rdf:RDF xmlns:dc="http://purl.org/dc/elements/1.1/" xmlns:cc="http://creativecommons.org/ns#" xmlns:rdf="http://www.w3.org/1999/02/22-rdf-syntax-ns#">
   <cc:Work>
    <dc:type rdf:resource="http://purl.org/dc/dcmitype/StillImage"/>
    <dc:date>2026-02-25T03:01:39.123117</dc:date>
    <dc:format>image/svg+xml</dc:format>
    <dc:creator>
     <cc:Agent>
      <dc:title>Matplotlib v3.10.8, https://matplotlib.org/</dc:title>
     </cc:Agent>
    </dc:creator>
   </cc:Work>
  </rdf:RDF>
 </metadata>
 <defs>
  <style type="text/css">*{stroke-linejoin: round; stroke-linecap: butt}</style>
 </defs>
 <g id="figure_1">
  <g id="patch_1">
   <path d="M 0 184.56 
L 676.884 184.56 
L 676.884 0 
L 0 0 
L 0 184.56 
z
" style="fill: none"/>
  </g>
  <g id="axes_1">
   <g id="line2d_1">
    <path d="M 26.154 86.28 
L 67.914 86.28 
M 67.914 77.28 
L 67.914 95.28 
M 74.394 77.28 
L 74.394 95.28 
M 74.394 86.28 
L 116.154 86.28 
" clip-path="url(#p13cd1fcb4a)" style="fill: none; stroke: #000000; stroke-width: 2; stroke-linecap: round"/>
   </g>
   <g id="line2d_2">
    <path d="M 116.154 86.28 
L 116.154 104.28 
L 125.154 107.28 
L 107.154 113.28 
L 125.154 119.28 
L 107.154 125.28 
L 125.154 131.28 
L 107.154 137.28 
L 116.154 140.28 
L 116.154 158.28 
" clip-path="url(#p13cd1fcb4a)" style="fill: none; stroke: #000000; stroke-width: 2; stroke-linecap: round"/>
   </g>
   <g id="line2d_3">
    <path d="M 116.154 86.28 
L 121.554 86.28 
L 126.954 86.28 
" clip-path="url(#p13cd1fcb4a)" style="fill: none; stroke: #000000; stroke-width: 2; stroke-linecap: round"/>
   </g>
   <g id="line2d_4">
    <path d="M 126.954 86.28 
L 153.954 86.28 
L 156.954 77.28 
L 162.954 95.28 
L 168.954 77.28 
L 174.954 95.28 
L 180.954 77.28 
L 186.954 95.28 
L 189.954 86.28 
L 216.954 86.28 
" clip-path="url(#p13cd1fcb4a)" style="fill: none; stroke: #000000; stroke-width: 2; stroke-linecap: round"/>
   </g>
   <g id="line2d_5">
    <path d="M 260.154 54.78 
L 260.154 27.78 
L 306.919372 54.78 
L 260.154 81.78 
L 260.154 54.78 
M 306.919372 54.78 
" clip-path="url(#p13cd1fcb4a)" style="fill: none; stroke: #000000; stroke-width: 2; stroke-linecap: round"/>
   </g>
   <g id="line2d_6">
    <path d="M 263.839671 41.28 
L 268.159671 41.28 
" clip-path="url(#p13cd1fcb4a)" style="fill: none; stroke: #000000; stroke-width: 2; stroke-linecap: round"/>
   </g>
   <g id="line2d_7">
    <path d="M 263.839671 68.28 
L 268.159671 68.28 
" clip-path="url(#p13cd1fcb4a)" style="fill: none; stroke: #000000; stroke-width: 2; stroke-linecap: round"/>
   </g>
   <g id="line2d_8">
    <path d="M 265.999671 70.44 
L 265.999671 66.12 
" clip-path="url(#p13cd1fcb4a)" style="fill: none; stroke: #000000; stroke-width: 2; stroke-linecap: round"/>
   </g>
   <g id="line2d_9">
    <path d="M 216.954 86.28 
L 216.954 71.88 
L 216.954 57.48 
" clip-path="url(#p13cd1fcb4a)" style="fill: none; stroke: #000000; stroke-width: 2; stroke-linecap: round"/>
   </g>
   <g id="line2d_10">
    <path d="M 216.954 57.48 
L 243.954 57.48 
L 246.954 48.48 
L 252.954 66.48 
L 258.954 48.48 
L 264.954 66.48 
L 270.954 48.48 
L 276.954 66.48 
L 279.954 57.48 
L 306.954 57.48 
" clip-path="url(#p13cd1fcb4a)" style="fill: none; stroke: #000000; stroke-width: 2; stroke-linecap: round"/>
   </g>
   <g id="line2d_11">
    <path d="M 216.954 57.48 
L 216.954 48.48 
L 216.954 39.48 
" clip-path="url(#p13cd1fcb4a)" style="fill: none; stroke: #000000; stroke-width: 2; stroke-linecap: round"/>
   </g>
   <g id="line2d_12">
    <path d="M 216.954 39.48 
L 258.714 39.48 
M 258.714 30.48 
L 258.714 48.48 
M 265.194 30.48 
L 265.194 48.48 
M 265.194 39.48 
L 306.954 39.48 
" clip-path="url(#p13cd1fcb4a)" style="fill: none; stroke: #000000; stroke-width: 2; stroke-linecap: round"/>
   </g>
   <g id="line2d_13">
    <path d="M 306.954 39.48 
L 306.954 48.48 
L 306.954 57.48 
" clip-path="url(#p13cd1fcb4a)" style="fill: none; stroke: #000000; stroke-width: 2; stroke-linecap: round"/>
   </g>
   <g id="line2d_14">
    <path d="M 306.954 57.48 
L 306.954 71.88 
L 306.954 86.28 
" clip-path="url(#p13cd1fcb4a)" style="fill: none; stroke: #000000; stroke-width: 2; stroke-linecap: round"/>
   </g>
   <g id="line2d_15">
    <path d="M 260.154 41.28 
L 254.754 41.28 
L 249.354 41.28 
" clip-path="url(#p13cd1fcb4a)" style="fill: none; stroke: #000000; stroke-width: 2; stroke-linecap: round"/>
   </g>
   <g id="line2d_16">
    <path d="M 306.954 86.28 
L 333.954 86.28 
L 360.954 86.28 
" clip-path="url(#p13cd1fcb4a)" style="fill: none; stroke: #000000; stroke-width: 2; stroke-linecap: round"/>
   </g>
   <g id="line2d_17">
    <path d="M 360.954 86.28 
L 402.714 86.28 
M 402.714 77.28 
L 402.714 95.28 
M 409.194 77.28 
L 409.194 95.28 
M 409.194 86.28 
L 450.954 86.28 
" clip-path="url(#p13cd1fcb4a)" style="fill: none; stroke: #000000; stroke-width: 2; stroke-linecap: round"/>
   </g>
   <g id="line2d_18">
    <path d="M 450.954 86.28 
L 450.954 104.28 
L 459.954 107.28 
L 441.954 113.28 
L 459.954 119.28 
L 441.954 125.28 
L 459.954 131.28 
L 441.954 137.28 
L 450.954 140.28 
L 450.954 158.28 
" clip-path="url(#p13cd1fcb4a)" style="fill: none; stroke: #000000; stroke-width: 2; stroke-linecap: round"/>
   </g>
   <g id="line2d_19">
    <path d="M 450.954 86.28 
L 456.354 86.28 
L 461.754 86.28 
" clip-path="url(#p13cd1fcb4a)" style="fill: none; stroke: #000000; stroke-width: 2; stroke-linecap: round"/>
   </g>
   <g id="line2d_20">
    <path d="M 461.754 86.28 
L 488.754 86.28 
L 491.754 77.28 
L 497.754 95.28 
L 503.754 77.28 
L 509.754 95.28 
L 515.754 77.28 
L 521.754 95.28 
L 524.754 86.28 
L 551.754 86.28 
" clip-path="url(#p13cd1fcb4a)" style="fill: none; stroke: #000000; stroke-width: 2; stroke-linecap: round"/>
   </g>
   <g id="line2d_21">
    <path d="M 594.954 54.78 
L 594.954 27.78 
L 641.719372 54.78 
L 594.954 81.78 
L 594.954 54.78 
M 641.719372 54.78 
" clip-path="url(#p13cd1fcb4a)" style="fill: none; stroke: #000000; stroke-width: 2; stroke-linecap: round"/>
   </g>
   <g id="line2d_22">
    <path d="M 598.639671 41.28 
L 602.959671 41.28 
" clip-path="url(#p13cd1fcb4a)" style="fill: none; stroke: #000000; stroke-width: 2; stroke-linecap: round"/>
   </g>
   <g id="line2d_23">
    <path d="M 598.639671 68.28 
L 602.959671 68.28 
" clip-path="url(#p13cd1fcb4a)" style="fill: none; stroke: #000000; stroke-width: 2; stroke-linecap: round"/>
   </g>
   <g id="line2d_24">
    <path d="M 600.799671 70.44 
L 600.799671 66.12 
" clip-path="url(#p13cd1fcb4a)" style="fill: none; stroke: #000000; stroke-width: 2; stroke-linecap: round"/>
   </g>
   <g id="line2d_25">
    <path d="M 551.754 86.28 
L 551.754 71.88 
L 551.754 57.48 
" clip-path="url(#p13cd1fcb4a)" style="fill: none; stroke: #000000; stroke-width: 2; stroke-linecap: round"/>
   </g>
   <g id="line2d_26">
    <path d="M 551.754 57.48 
L 578.754 57.48 
L 581.754 48.48 
L 587.754 66.48 
L 593.754 48.48 
L 599.754 66.48 
L 605.754 48.48 
L 611.754 66.48 
L 614.754 57.48 
L 641.754 57.48 
" clip-path="url(#p13cd1fcb4a)" style="fill: none; stroke: #000000; stroke-width: 2; stroke-linecap: round"/>
   </g>
   <g id="line2d_27">
    <path d="M 551.754 57.48 
L 551.754 48.48 
L 551.754 39.48 
" clip-path="url(#p13cd1fcb4a)" style="fill: none; stroke: #000000; stroke-width: 2; stroke-linecap: round"/>
   </g>
   <g id="line2d_28">
    <path d="M 551.754 39.48 
L 593.514 39.48 
M 593.514 30.48 
L 593.514 48.48 
M 599.994 30.48 
L 599.994 48.48 
M 599.994 39.48 
L 641.754 39.48 
" clip-path="url(#p13cd1fcb4a)" style="fill: none; stroke: #000000; stroke-width: 2; stroke-linecap: round"/>
   </g>
   <g id="line2d_29">
    <path d="M 641.754 39.48 
L 641.754 48.48 
L 641.754 57.48 
" clip-path="url(#p13cd1fcb4a)" style="fill: none; stroke: #000000; stroke-width: 2; stroke-linecap: round"/>
   </g>
   <g id="line2d_30">
    <path d="M 641.754 57.48 
L 641.754 71.88 
L 641.754 86.28 
" clip-path="url(#p13cd1fcb4a)" style="fill: none; stroke: #000000; stroke-width: 2; stroke-linecap: round"/>
   </g>
   <g id="line2d_31">
    <path d="M 594.954 41.28 
L 589.554 41.28 
L 584.154 41.28 
" clip-path="url(#p13cd1fcb4a)" style="fill: none; stroke: #000000; stroke-width: 2; stroke-linecap: round"/>
   </g>
   <g id="text_1">
    <!-- 2-Stage Active Band-Pass Filter (TLV2379) -->
    <g transform="translate(120.134625 13.99125) scale(0.12 -0.12)">
     <defs>
      <path id="DejaVuSans-32" d="M 1228 531 
L 3431 531 
L 3431 0 
L 469 0 
L 469 531 
Q 828 903 1448 1529 
Q 2069 2156 2228 2338 
Q 2531 2678 2651 2914 
Q 2772 3150 2772 3378 
Q 2772 3750 2511 3984 
Q 2250 4219 1831 4219 
Q 1534 4219 1204 4116 
Q 875 4013 500 3803 
L 500 4441 
Q 881 4594 1212 4672 
Q 1544 4750 1819 4750 
Q 2544 4750 2975 4387 
Q 3406 4025 3406 3419 
Q 3406 3131 3298 2873 
Q 3191 2616 2906 2266 
Q 2828 2175 2409 1742 
Q 1991 1309 1228 531 
z
" transform="scale(0.015625)"/>
      <path id="DejaVuSans-2d" d="M 313 2009 
L 1997 2009 
L 1997 1497 
L 313 1497 
L 313 2009 
z
" transform="scale(0.015625)"/>
      <path id="DejaVuSans-53" d="M 3425 4513 
L 3425 3897 
Q 3066 4069 2747 4153 
Q 2428 4238 2131 4238 
Q 1616 4238 1336 4038 
Q 1056 3838 1056 3469 
Q 1056 3159 1242 3001 
Q 1428 2844 1947 2747 
L 2328 2669 
Q 3034 2534 3370 2195 
Q 3706 1856 3706 1288 
Q 3706 609 3251 259 
Q 2797 -91 1919 -91 
Q 1588 -91 1214 -16 
Q 841 59 441 206 
L 441 856 
Q 825 641 1194 531 
Q 1563 422 1919 422 
Q 2459 422 2753 634 
Q 3047 847 3047 1241 
Q 3047 1584 2836 1778 
Q 2625 1972 2144 2069 
L 1759 2144 
Q 1053 2284 737 2584 
Q 422 2884 422 3419 
Q 422 4038 858 4394 
Q 1294 4750 2059 4750 
Q 2388 4750 2728 4690 
Q 3069 4631 3425 4513 
z
" transform="scale(0.015625)"/>
      <path id="DejaVuSans-74" d="M 1172 4494 
L 1172 3500 
L 2356 3500 
L 2356 3053 
L 1172 3053 
L 1172 1153 
Q 1172 725 1289 603 
Q 1406 481 1766 481 
L 2356 481 
L 2356 0 
L 1766 0 
Q 1100 0 847 248 
Q 594 497 594 1153 
L 594 3053 
L 172 3053 
L 172 3500 
L 594 3500 
L 594 4494 
L 1172 4494 
z
" transform="scale(0.015625)"/>
      <path id="DejaVuSans-61" d="M 2194 1759 
Q 1497 1759 1228 1600 
Q 959 1441 959 1056 
Q 959 750 1161 570 
Q 1363 391 1709 391 
Q 2188 391 2477 730 
Q 2766 1069 2766 1631 
L 2766 1759 
L 2194 1759 
z
M 3341 1997 
L 3341 0 
L 2766 0 
L 2766 531 
Q 2569 213 2275 61 
Q 1981 -91 1556 -91 
Q 1019 -91 701 211 
Q 384 513 384 1019 
Q 384 1609 779 1909 
Q 1175 2209 1959 2209 
L 2766 2209 
L 2766 2266 
Q 2766 2663 2505 2880 
Q 2244 3097 1772 3097 
Q 1472 3097 1187 3025 
Q 903 2953 641 2809 
L 641 3341 
Q 956 3463 1253 3523 
Q 1550 3584 1831 3584 
Q 2591 3584 2966 3190 
Q 3341 2797 3341 1997 
z
" transform="scale(0.015625)"/>
      <path id="DejaVuSans-67" d="M 2906 1791 
Q 2906 2416 2648 2759 
Q 2391 3103 1925 3103 
Q 1463 3103 1205 2759 
Q 947 2416 947 1791 
Q 947 1169 1205 825 
Q 1463 481 1925 481 
Q 2391 481 2648 825 
Q 2906 1169 2906 1791 
z
M 3481 434 
Q 3481 -459 3084 -895 
Q 2688 -1331 1869 -1331 
Q 1566 -1331 1297 -1286 
Q 1028 -1241 775 -1147 
L 775 -588 
Q 1028 -725 1275 -790 
Q 1522 -856 1778 -856 
Q 2344 -856 2625 -561 
Q 2906 -266 2906 331 
L 2906 616 
Q 2728 306 2450 153 
Q 2172 0 1784 0 
Q 1141 0 747 490 
Q 353 981 353 1791 
Q 353 2603 747 3093 
Q 1141 3584 1784 3584 
Q 2172 3584 2450 3431 
Q 2728 3278 2906 2969 
L 2906 3500 
L 3481 3500 
L 3481 434 
z
" transform="scale(0.015625)"/>
      <path id="DejaVuSans-65" d="M 3597 1894 
L 3597 1613 
L 953 1613 
Q 991 1019 1311 708 
Q 1631 397 2203 397 
Q 2534 397 2845 478 
Q 3156 559 3463 722 
L 3463 178 
Q 3153 47 2828 -22 
Q 2503 -91 2169 -91 
Q 1331 -91 842 396 
Q 353 884 353 1716 
Q 353 2575 817 3079 
Q 1281 3584 2069 3584 
Q 2775 3584 3186 3129 
Q 3597 2675 3597 1894 
z
M 3022 2063 
Q 3016 2534 2758 2815 
Q 2500 3097 2075 3097 
Q 1594 3097 1305 2825 
Q 1016 2553 972 2059 
L 3022 2063 
z
" transform="scale(0.015625)"/>
      <path id="DejaVuSans-20" transform="scale(0.015625)"/>
      <path id="DejaVuSans-41" d="M 2188 4044 
L 1331 1722 
L 3047 1722 
L 2188 4044 
z
M 1831 4666 
L 2547 4666 
L 4325 0 
L 3669 0 
L 3244 1197 
L 1141 1197 
L 716 0 
L 50 0 
L 1831 4666 
z
" transform="scale(0.015625)"/>
      <path id="DejaVuSans-63" d="M 3122 3366 
L 3122 2828 
Q 2878 2963 2633 3030 
Q 2388 3097 2138 3097 
Q 1578 3097 1268 2742 
Q 959 2388 959 1747 
Q 959 1106 1268 751 
Q 1578 397 2138 397 
Q 2388 397 2633 464 
Q 2878 531 3122 666 
L 3122 134 
Q 2881 22 2623 -34 
Q 2366 -91 2075 -91 
Q 1284 -91 818 406 
Q 353 903 353 1747 
Q 353 2603 823 3093 
Q 1294 3584 2113 3584 
Q 2378 3584 2631 3529 
Q 2884 3475 3122 3366 
z
" transform="scale(0.015625)"/>
      <path id="DejaVuSans-69" d="M 603 3500 
L 1178 3500 
L 1178 0 
L 603 0 
L 603 3500 
z
M 603 4863 
L 1178 4863 
L 1178 4134 
L 603 4134 
L 603 4863 
z
" transform="scale(0.015625)"/>
      <path id="DejaVuSans-76" d="M 191 3500 
L 800 3500 
L 1894 563 
L 2988 3500 
L 3597 3500 
L 2284 0 
L 1503 0 
L 191 3500 
z
" transform="scale(0.015625)"/>
      <path id="DejaVuSans-42" d="M 1259 2228 
L 1259 519 
L 2272 519 
Q 2781 519 3026 730 
Q 3272 941 3272 1375 
Q 3272 1813 3026 2020 
Q 2781 2228 2272 2228 
L 1259 2228 
z
M 1259 4147 
L 1259 2741 
L 2194 2741 
Q 2656 2741 2882 2914 
Q 3109 3088 3109 3444 
Q 3109 3797 2882 3972 
Q 2656 4147 2194 4147 
L 1259 4147 
z
M 628 4666 
L 2241 4666 
Q 2963 4666 3353 4366 
Q 3744 4066 3744 3513 
Q 3744 3084 3544 2831 
Q 3344 2578 2956 2516 
Q 3422 2416 3680 2098 
Q 3938 1781 3938 1306 
Q 3938 681 3513 340 
Q 3088 0 2303 0 
L 628 0 
L 628 4666 
z
" transform="scale(0.015625)"/>
      <path id="DejaVuSans-6e" d="M 3513 2113 
L 3513 0 
L 2938 0 
L 2938 2094 
Q 2938 2591 2744 2837 
Q 2550 3084 2163 3084 
Q 1697 3084 1428 2787 
Q 1159 2491 1159 1978 
L 1159 0 
L 581 0 
L 581 3500 
L 1159 3500 
L 1159 2956 
Q 1366 3272 1645 3428 
Q 1925 3584 2291 3584 
Q 2894 3584 3203 3211 
Q 3513 2838 3513 2113 
z
" transform="scale(0.015625)"/>
      <path id="DejaVuSans-64" d="M 2906 2969 
L 2906 4863 
L 3481 4863 
L 3481 0 
L 2906 0 
L 2906 525 
Q 2725 213 2448 61 
Q 2172 -91 1784 -91 
Q 1150 -91 751 415 
Q 353 922 353 1747 
Q 353 2572 751 3078 
Q 1150 3584 1784 3584 
Q 2172 3584 2448 3432 
Q 2725 3281 2906 2969 
z
M 947 1747 
Q 947 1113 1208 752 
Q 1469 391 1925 391 
Q 2381 391 2643 752 
Q 2906 1113 2906 1747 
Q 2906 2381 2643 2742 
Q 2381 3103 1925 3103 
Q 1469 3103 1208 2742 
Q 947 2381 947 1747 
z
" transform="scale(0.015625)"/>
      <path id="DejaVuSans-50" d="M 1259 4147 
L 1259 2394 
L 2053 2394 
Q 2494 2394 2734 2622 
Q 2975 2850 2975 3272 
Q 2975 3691 2734 3919 
Q 2494 4147 2053 4147 
L 1259 4147 
z
M 628 4666 
L 2053 4666 
Q 2838 4666 3239 4311 
Q 3641 3956 3641 3272 
Q 3641 2581 3239 2228 
Q 2838 1875 2053 1875 
L 1259 1875 
L 1259 0 
L 628 0 
L 628 4666 
z
" transform="scale(0.015625)"/>
      <path id="DejaVuSans-73" d="M 2834 3397 
L 2834 2853 
Q 2591 2978 2328 3040 
Q 2066 3103 1784 3103 
Q 1356 3103 1142 2972 
Q 928 2841 928 2578 
Q 928 2378 1081 2264 
Q 1234 2150 1697 2047 
L 1894 2003 
Q 2506 1872 2764 1633 
Q 3022 1394 3022 966 
Q 3022 478 2636 193 
Q 2250 -91 1575 -91 
Q 1294 -91 989 -36 
Q 684 19 347 128 
L 347 722 
Q 666 556 975 473 
Q 1284 391 1588 391 
Q 1994 391 2212 530 
Q 2431 669 2431 922 
Q 2431 1156 2273 1281 
Q 2116 1406 1581 1522 
L 1381 1569 
Q 847 1681 609 1914 
Q 372 2147 372 2553 
Q 372 3047 722 3315 
Q 1072 3584 1716 3584 
Q 2034 3584 2315 3537 
Q 2597 3491 2834 3397 
z
" transform="scale(0.015625)"/>
      <path id="DejaVuSans-46" d="M 628 4666 
L 3309 4666 
L 3309 4134 
L 1259 4134 
L 1259 2759 
L 3109 2759 
L 3109 2228 
L 1259 2228 
L 1259 0 
L 628 0 
L 628 4666 
z
" transform="scale(0.015625)"/>
      <path id="DejaVuSans-6c" d="M 603 4863 
L 1178 4863 
L 1178 0 
L 603 0 
L 603 4863 
z
" transform="scale(0.015625)"/>
      <path id="DejaVuSans-72" d="M 2631 2963 
Q 2534 3019 2420 3045 
Q 2306 3072 2169 3072 
Q 1681 3072 1420 2755 
Q 1159 2438 1159 1844 
L 1159 0 
L 581 0 
L 581 3500 
L 1159 3500 
L 1159 2956 
Q 1341 3275 1631 3429 
Q 1922 3584 2338 3584 
Q 2397 3584 2469 3576 
Q 2541 3569 2628 3553 
L 2631 2963 
z
" transform="scale(0.015625)"/>
      <path id="DejaVuSans-28" d="M 1984 4856 
Q 1566 4138 1362 3434 
Q 1159 2731 1159 2009 
Q 1159 1288 1364 580 
Q 1569 -128 1984 -844 
L 1484 -844 
Q 1016 -109 783 600 
Q 550 1309 550 2009 
Q 550 2706 781 3412 
Q 1013 4119 1484 4856 
L 1984 4856 
z
" transform="scale(0.015625)"/>
      <path id="DejaVuSans-54" d="M -19 4666 
L 3928 4666 
L 3928 4134 
L 2272 4134 
L 2272 0 
L 1638 0 
L 1638 4134 
L -19 4134 
L -19 4666 
z
" transform="scale(0.015625)"/>
      <path id="DejaVuSans-4c" d="M 628 4666 
L 1259 4666 
L 1259 531 
L 3531 531 
L 3531 0 
L 628 0 
L 628 4666 
z
" transform="scale(0.015625)"/>
      <path id="DejaVuSans-56" d="M 1831 0 
L 50 4666 
L 709 4666 
L 2188 738 
L 3669 4666 
L 4325 4666 
L 2547 0 
L 1831 0 
z
" transform="scale(0.015625)"/>
      <path id="DejaVuSans-33" d="M 2597 2516 
Q 3050 2419 3304 2112 
Q 3559 1806 3559 1356 
Q 3559 666 3084 287 
Q 2609 -91 1734 -91 
Q 1441 -91 1130 -33 
Q 819 25 488 141 
L 488 750 
Q 750 597 1062 519 
Q 1375 441 1716 441 
Q 2309 441 2620 675 
Q 2931 909 2931 1356 
Q 2931 1769 2642 2001 
Q 2353 2234 1838 2234 
L 1294 2234 
L 1294 2753 
L 1863 2753 
Q 2328 2753 2575 2939 
Q 2822 3125 2822 3475 
Q 2822 3834 2567 4026 
Q 2313 4219 1838 4219 
Q 1578 4219 1281 4162 
Q 984 4106 628 3988 
L 628 4550 
Q 988 4650 1302 4700 
Q 1616 4750 1894 4750 
Q 2613 4750 3031 4423 
Q 3450 4097 3450 3541 
Q 3450 3153 3228 2886 
Q 3006 2619 2597 2516 
z
" transform="scale(0.015625)"/>
      <path id="DejaVuSans-37" d="M 525 4666 
L 3525 4666 
L 3525 4397 
L 1831 0 
L 1172 0 
L 2766 4134 
L 525 4134 
L 525 4666 
z
" transform="scale(0.015625)"/>
      <path id="DejaVuSans-39" d="M 703 97 
L 703 672 
Q 941 559 1184 500 
Q 1428 441 1663 441 
Q 2288 441 2617 861 
Q 2947 1281 2994 2138 
Q 2813 1869 2534 1725 
Q 2256 1581 1919 1581 
Q 1219 1581 811 2004 
Q 403 2428 403 3163 
Q 403 3881 828 4315 
Q 1253 4750 1959 4750 
Q 2769 4750 3195 4129 
Q 3622 3509 3622 2328 
Q 3622 1225 3098 567 
Q 2575 -91 1691 -91 
Q 1453 -91 1209 -44 
Q 966 3 703 97 
z
M 1959 2075 
Q 2384 2075 2632 2365 
Q 2881 2656 2881 3163 
Q 2881 3666 2632 3958 
Q 2384 4250 1959 4250 
Q 1534 4250 1286 3958 
Q 1038 3666 1038 3163 
Q 1038 2656 1286 2365 
Q 1534 2075 1959 2075 
z
" transform="scale(0.015625)"/>
      <path id="DejaVuSans-29" d="M 513 4856 
L 1013 4856 
Q 1481 4119 1714 3412 
Q 1947 2706 1947 2009 
Q 1947 1309 1714 600 
Q 1481 -109 1013 -844 
L 513 -844 
Q 928 -128 1133 580 
Q 1338 1288 1338 2009 
Q 1338 2731 1133 3434 
Q 928 4138 513 4856 
z
" transform="scale(0.015625)"/>
     </defs>
     <use xlink:href="#DejaVuSans-32"/>
     <use xlink:href="#DejaVuSans-2d" transform="translate(63.623047 0)"/>
     <use xlink:href="#DejaVuSans-53" transform="translate(99.707031 0)"/>
     <use xlink:href="#DejaVuSans-74" transform="translate(163.183594 0)"/>
     <use xlink:href="#DejaVuSans-61" transform="translate(202.392578 0)"/>
     <use xlink:href="#DejaVuSans-67" transform="translate(263.671875 0)"/>
     <use xlink:href="#DejaVuSans-65" transform="translate(327.148438 0)"/>
     <use xlink:href="#DejaVuSans-20" transform="translate(388.671875 0)"/>
     <use xlink:href="#DejaVuSans-41" transform="translate(420.458984 0)"/>
     <use xlink:href="#DejaVuSans-63" transform="translate(487.117188 0)"/>
     <use xlink:href="#DejaVuSans-74" transform="translate(542.097656 0)"/>
     <use xlink:href="#DejaVuSans-69" transform="translate(581.306641 0)"/>
     <use xlink:href="#DejaVuSans-76" transform="translate(609.089844 0)"/>
     <use xlink:href="#DejaVuSans-65" transform="translate(668.269531 0)"/>
     <use xlink:href="#DejaVuSans-20" transform="translate(729.792969 0)"/>
     <use xlink:href="#DejaVuSans-42" transform="translate(761.580078 0)"/>
     <use xlink:href="#DejaVuSans-61" transform="translate(830.183594 0)"/>
     <use xlink:href="#DejaVuSans-6e" transform="translate(891.462891 0)"/>
     <use xlink:href="#DejaVuSans-64" transform="translate(954.841797 0)"/>
     <use xlink:href="#DejaVuSans-2d" transform="translate(1018.318359 0)"/>
     <use xlink:href="#DejaVuSans-50" transform="translate(1054.402344 0)"/>
     <use xlink:href="#DejaVuSans-61" transform="translate(1110.205078 0)"/>
     <use xlink:href="#DejaVuSans-73" transform="translate(1171.484375 0)"/>
     <use xlink:href="#DejaVuSans-73" transform="translate(1223.583984 0)"/>
     <use xlink:href="#DejaVuSans-20" transform="translate(1275.683594 0)"/>
     <use xlink:href="#DejaVuSans-46" transform="translate(1307.470703 0)"/>
     <use xlink:href="#DejaVuSans-69" transform="translate(1357.740234 0)"/>
     <use xlink:href="#DejaVuSans-6c" transform="translate(1385.523438 0)"/>
     <use xlink:href="#DejaVuSans-74" transform="translate(1413.306641 0)"/>
     <use xlink:href="#DejaVuSans-65" transform="translate(1452.515625 0)"/>
     <use xlink:href="#DejaVuSans-72" transform="translate(1514.039062 0)"/>
     <use xlink:href="#DejaVuSans-20" transform="translate(1555.152344 0)"/>
     <use xlink:href="#DejaVuSans-28" transform="translate(1586.939453 0)"/>
     <use xlink:href="#DejaVuSans-54" transform="translate(1625.953125 0)"/>
     <use xlink:href="#DejaVuSans-4c" transform="translate(1687.037109 0)"/>
     <use xlink:href="#DejaVuSans-56" transform="translate(1731.75 0)"/>
     <use xlink:href="#DejaVuSans-32" transform="translate(1800.158203 0)"/>
     <use xlink:href="#DejaVuSans-33" transform="translate(1863.78125 0)"/>
     <use xlink:href="#DejaVuSans-37" transform="translate(1927.404297 0)"/>
     <use xlink:href="#DejaVuSans-39" transform="translate(1991.027344 0)"/>
     <use xlink:href="#DejaVuSans-29" transform="translate(2054.650391 0)"/>
    </g>
   </g>
   <g id="text_2">
    <!-- HP: 0.0 kHz | LP: 10610 Hz | Passband: 700 Hz – 10 kHz -->
    <g transform="translate(120.751031 31.057969) scale(0.09 -0.09)">
     <defs>
      <path id="DejaVuSans-48" d="M 628 4666 
L 1259 4666 
L 1259 2753 
L 3553 2753 
L 3553 4666 
L 4184 4666 
L 4184 0 
L 3553 0 
L 3553 2222 
L 1259 2222 
L 1259 0 
L 628 0 
L 628 4666 
z
" transform="scale(0.015625)"/>
      <path id="DejaVuSans-3a" d="M 750 794 
L 1409 794 
L 1409 0 
L 750 0 
L 750 794 
z
M 750 3309 
L 1409 3309 
L 1409 2516 
L 750 2516 
L 750 3309 
z
" transform="scale(0.015625)"/>
      <path id="DejaVuSans-30" d="M 2034 4250 
Q 1547 4250 1301 3770 
Q 1056 3291 1056 2328 
Q 1056 1369 1301 889 
Q 1547 409 2034 409 
Q 2525 409 2770 889 
Q 3016 1369 3016 2328 
Q 3016 3291 2770 3770 
Q 2525 4250 2034 4250 
z
M 2034 4750 
Q 2819 4750 3233 4129 
Q 3647 3509 3647 2328 
Q 3647 1150 3233 529 
Q 2819 -91 2034 -91 
Q 1250 -91 836 529 
Q 422 1150 422 2328 
Q 422 3509 836 4129 
Q 1250 4750 2034 4750 
z
" transform="scale(0.015625)"/>
      <path id="DejaVuSans-2e" d="M 684 794 
L 1344 794 
L 1344 0 
L 684 0 
L 684 794 
z
" transform="scale(0.015625)"/>
      <path id="DejaVuSans-6b" d="M 581 4863 
L 1159 4863 
L 1159 1991 
L 2875 3500 
L 3609 3500 
L 1753 1863 
L 3688 0 
L 2938 0 
L 1159 1709 
L 1159 0 
L 581 0 
L 581 4863 
z
" transform="scale(0.015625)"/>
      <path id="DejaVuSans-7a" d="M 353 3500 
L 3084 3500 
L 3084 2975 
L 922 459 
L 3084 459 
L 3084 0 
L 275 0 
L 275 525 
L 2438 3041 
L 353 3041 
L 353 3500 
z
" transform="scale(0.015625)"/>
      <path id="DejaVuSans-7c" d="M 1344 4891 
L 1344 -1509 
L 813 -1509 
L 813 4891 
L 1344 4891 
z
" transform="scale(0.015625)"/>
      <path id="DejaVuSans-31" d="M 794 531 
L 1825 531 
L 1825 4091 
L 703 3866 
L 703 4441 
L 1819 4666 
L 2450 4666 
L 2450 531 
L 3481 531 
L 3481 0 
L 794 0 
L 794 531 
z
" transform="scale(0.015625)"/>
      <path id="DejaVuSans-36" d="M 2113 2584 
Q 1688 2584 1439 2293 
Q 1191 2003 1191 1497 
Q 1191 994 1439 701 
Q 1688 409 2113 409 
Q 2538 409 2786 701 
Q 3034 994 3034 1497 
Q 3034 2003 2786 2293 
Q 2538 2584 2113 2584 
z
M 3366 4563 
L 3366 3988 
Q 3128 4100 2886 4159 
Q 2644 4219 2406 4219 
Q 1781 4219 1451 3797 
Q 1122 3375 1075 2522 
Q 1259 2794 1537 2939 
Q 1816 3084 2150 3084 
Q 2853 3084 3261 2657 
Q 3669 2231 3669 1497 
Q 3669 778 3244 343 
Q 2819 -91 2113 -91 
Q 1303 -91 875 529 
Q 447 1150 447 2328 
Q 447 3434 972 4092 
Q 1497 4750 2381 4750 
Q 2619 4750 2861 4703 
Q 3103 4656 3366 4563 
z
" transform="scale(0.015625)"/>
      <path id="DejaVuSans-62" d="M 3116 1747 
Q 3116 2381 2855 2742 
Q 2594 3103 2138 3103 
Q 1681 3103 1420 2742 
Q 1159 2381 1159 1747 
Q 1159 1113 1420 752 
Q 1681 391 2138 391 
Q 2594 391 2855 752 
Q 3116 1113 3116 1747 
z
M 1159 2969 
Q 1341 3281 1617 3432 
Q 1894 3584 2278 3584 
Q 2916 3584 3314 3078 
Q 3713 2572 3713 1747 
Q 3713 922 3314 415 
Q 2916 -91 2278 -91 
Q 1894 -91 1617 61 
Q 1341 213 1159 525 
L 1159 0 
L 581 0 
L 581 4863 
L 1159 4863 
L 1159 2969 
z
" transform="scale(0.015625)"/>
      <path id="DejaVuSans-2013" d="M 313 1978 
L 2888 1978 
L 2888 1528 
L 313 1528 
L 313 1978 
z
" transform="scale(0.015625)"/>
     </defs>
     <use xlink:href="#DejaVuSans-48"/>
     <use xlink:href="#DejaVuSans-50" transform="translate(75.195312 0)"/>
     <use xlink:href="#DejaVuSans-3a" transform="translate(135.498047 0)"/>
     <use xlink:href="#DejaVuSans-20" transform="translate(169.189453 0)"/>
     <use xlink:href="#DejaVuSans-30" transform="translate(200.976562 0)"/>
     <use xlink:href="#DejaVuSans-2e" transform="translate(264.599609 0)"/>
     <use xlink:href="#DejaVuSans-30" transform="translate(296.386719 0)"/>
     <use xlink:href="#DejaVuSans-20" transform="translate(360.009766 0)"/>
     <use xlink:href="#DejaVuSans-6b" transform="translate(391.796875 0)"/>
     <use xlink:href="#DejaVuSans-48" transform="translate(449.707031 0)"/>
     <use xlink:href="#DejaVuSans-7a" transform="translate(524.902344 0)"/>
     <use xlink:href="#DejaVuSans-20" transform="translate(577.392578 0)"/>
     <use xlink:href="#DejaVuSans-7c" transform="translate(609.179688 0)"/>
     <use xlink:href="#DejaVuSans-20" transform="translate(642.871094 0)"/>
     <use xlink:href="#DejaVuSans-4c" transform="translate(674.658203 0)"/>
     <use xlink:href="#DejaVuSans-50" transform="translate(730.371094 0)"/>
     <use xlink:href="#DejaVuSans-3a" transform="translate(790.673828 0)"/>
     <use xlink:href="#DejaVuSans-20" transform="translate(824.365234 0)"/>
     <use xlink:href="#DejaVuSans-31" transform="translate(856.152344 0)"/>
     <use xlink:href="#DejaVuSans-30" transform="translate(919.775391 0)"/>
     <use xlink:href="#DejaVuSans-36" transform="translate(983.398438 0)"/>
     <use xlink:href="#DejaVuSans-31" transform="translate(1047.021484 0)"/>
     <use xlink:href="#DejaVuSans-30" transform="translate(1110.644531 0)"/>
     <use xlink:href="#DejaVuSans-20" transform="translate(1174.267578 0)"/>
     <use xlink:href="#DejaVuSans-48" transform="translate(1206.054688 0)"/>
     <use xlink:href="#DejaVuSans-7a" transform="translate(1281.25 0)"/>
     <use xlink:href="#DejaVuSans-20" transform="translate(1333.740234 0)"/>
     <use xlink:href="#DejaVuSans-7c" transform="translate(1365.527344 0)"/>
     <use xlink:href="#DejaVuSans-20" transform="translate(1399.21875 0)"/>
     <use xlink:href="#DejaVuSans-50" transform="translate(1431.005859 0)"/>
     <use xlink:href="#DejaVuSans-61" transform="translate(1486.808594 0)"/>
     <use xlink:href="#DejaVuSans-73" transform="translate(1548.087891 0)"/>
     <use xlink:href="#DejaVuSans-73" transform="translate(1600.1875 0)"/>
     <use xlink:href="#DejaVuSans-62" transform="translate(1652.287109 0)"/>
     <use xlink:href="#DejaVuSans-61" transform="translate(1715.763672 0)"/>
     <use xlink:href="#DejaVuSans-6e" transform="translate(1777.042969 0)"/>
     <use xlink:href="#DejaVuSans-64" transform="translate(1840.421875 0)"/>
     <use xlink:href="#DejaVuSans-3a" transform="translate(1903.898438 0)"/>
     <use xlink:href="#DejaVuSans-20" transform="translate(1937.589844 0)"/>
     <use xlink:href="#DejaVuSans-37" transform="translate(1969.376953 0)"/>
     <use xlink:href="#DejaVuSans-30" transform="translate(2033 0)"/>
     <use xlink:href="#DejaVuSans-30" transform="translate(2096.623047 0)"/>
     <use xlink:href="#DejaVuSans-20" transform="translate(2160.246094 0)"/>
     <use xlink:href="#DejaVuSans-48" transform="translate(2192.033203 0)"/>
     <use xlink:href="#DejaVuSans-7a" transform="translate(2267.228516 0)"/>
     <use xlink:href="#DejaVuSans-20" transform="translate(2319.71875 0)"/>
     <use xlink:href="#DejaVuSans-2013" transform="translate(2351.505859 0)"/>
     <use xlink:href="#DejaVuSans-20" transform="translate(2401.505859 0)"/>
     <use xlink:href="#DejaVuSans-31" transform="translate(2433.292969 0)"/>
     <use xlink:href="#DejaVuSans-30" transform="translate(2496.916016 0)"/>
     <use xlink:href="#DejaVuSans-20" transform="translate(2560.539062 0)"/>
     <use xlink:href="#DejaVuSans-6b" transform="translate(2592.326172 0)"/>
     <use xlink:href="#DejaVuSans-48" transform="translate(2650.236328 0)"/>
     <use xlink:href="#DejaVuSans-7a" transform="translate(2725.431641 0)"/>
    </g>
   </g>
   <g id="text_3">
    <!-- Stage 1 -->
    <g style="fill: #0000ff" transform="translate(10.534469 60.239375) scale(0.1 -0.1)">
     <use xlink:href="#DejaVuSans-53"/>
     <use xlink:href="#DejaVuSans-74" transform="translate(63.476562 0)"/>
     <use xlink:href="#DejaVuSans-61" transform="translate(102.685547 0)"/>
     <use xlink:href="#DejaVuSans-67" transform="translate(163.964844 0)"/>
     <use xlink:href="#DejaVuSans-65" transform="translate(227.441406 0)"/>
     <use xlink:href="#DejaVuSans-20" transform="translate(288.964844 0)"/>
     <use xlink:href="#DejaVuSans-31" transform="translate(320.751953 0)"/>
    </g>
   </g>
   <g id="text_4">
    <!-- $C_{HP}$ -->
    <g transform="translate(63.594 63.097969) scale(0.09 -0.09)">
     <defs>
      <path id="DejaVuSans-Oblique-43" d="M 4447 4306 
L 4319 3641 
Q 4019 3944 3683 4091 
Q 3347 4238 2956 4238 
Q 2422 4238 2017 3981 
Q 1613 3725 1319 3200 
Q 1131 2863 1032 2486 
Q 934 2109 934 1728 
Q 934 1091 1264 756 
Q 1594 422 2222 422 
Q 2656 422 3056 561 
Q 3456 700 3834 978 
L 3688 231 
Q 3316 72 2936 -9 
Q 2556 -91 2175 -91 
Q 1278 -91 773 396 
Q 269 884 269 1753 
Q 269 2309 461 2846 
Q 653 3384 1013 3828 
Q 1394 4300 1883 4525 
Q 2372 4750 3022 4750 
Q 3422 4750 3780 4639 
Q 4138 4528 4447 4306 
z
" transform="scale(0.015625)"/>
      <path id="DejaVuSans-Oblique-48" d="M 1081 4666 
L 1716 4666 
L 1344 2753 
L 3634 2753 
L 4006 4666 
L 4641 4666 
L 3731 0 
L 3097 0 
L 3531 2222 
L 1241 2222 
L 806 0 
L 172 0 
L 1081 4666 
z
" transform="scale(0.015625)"/>
      <path id="DejaVuSans-Oblique-50" d="M 1081 4666 
L 2541 4666 
Q 3178 4666 3512 4369 
Q 3847 4072 3847 3500 
Q 3847 2731 3353 2303 
Q 2859 1875 1966 1875 
L 1172 1875 
L 806 0 
L 172 0 
L 1081 4666 
z
M 1613 4147 
L 1275 2394 
L 2069 2394 
Q 2606 2394 2893 2669 
Q 3181 2944 3181 3456 
Q 3181 3784 2986 3965 
Q 2791 4147 2438 4147 
L 1613 4147 
z
" transform="scale(0.015625)"/>
     </defs>
     <use xlink:href="#DejaVuSans-Oblique-43" transform="translate(0 0.78125)"/>
     <use xlink:href="#DejaVuSans-Oblique-48" transform="translate(69.824219 -15.625) scale(0.7)"/>
     <use xlink:href="#DejaVuSans-Oblique-50" transform="translate(122.460938 -15.625) scale(0.7)"/>
    </g>
    <!-- 470000.0 pF -->
    <g transform="translate(42.806812 71.808281) scale(0.09 -0.09)">
     <defs>
      <path id="DejaVuSans-34" d="M 2419 4116 
L 825 1625 
L 2419 1625 
L 2419 4116 
z
M 2253 4666 
L 3047 4666 
L 3047 1625 
L 3713 1625 
L 3713 1100 
L 3047 1100 
L 3047 0 
L 2419 0 
L 2419 1100 
L 313 1100 
L 313 1709 
L 2253 4666 
z
" transform="scale(0.015625)"/>
      <path id="DejaVuSans-70" d="M 1159 525 
L 1159 -1331 
L 581 -1331 
L 581 3500 
L 1159 3500 
L 1159 2969 
Q 1341 3281 1617 3432 
Q 1894 3584 2278 3584 
Q 2916 3584 3314 3078 
Q 3713 2572 3713 1747 
Q 3713 922 3314 415 
Q 2916 -91 2278 -91 
Q 1894 -91 1617 61 
Q 1341 213 1159 525 
z
M 3116 1747 
Q 3116 2381 2855 2742 
Q 2594 3103 2138 3103 
Q 1681 3103 1420 2742 
Q 1159 2381 1159 1747 
Q 1159 1113 1420 752 
Q 1681 391 2138 391 
Q 2594 391 2855 752 
Q 3116 1113 3116 1747 
z
" transform="scale(0.015625)"/>
     </defs>
     <use xlink:href="#DejaVuSans-34"/>
     <use xlink:href="#DejaVuSans-37" transform="translate(63.623047 0)"/>
     <use xlink:href="#DejaVuSans-30" transform="translate(127.246094 0)"/>
     <use xlink:href="#DejaVuSans-30" transform="translate(190.869141 0)"/>
     <use xlink:href="#DejaVuSans-30" transform="translate(254.492188 0)"/>
     <use xlink:href="#DejaVuSans-30" transform="translate(318.115234 0)"/>
     <use xlink:href="#DejaVuSans-2e" transform="translate(381.738281 0)"/>
     <use xlink:href="#DejaVuSans-30" transform="translate(413.525391 0)"/>
     <use xlink:href="#DejaVuSans-20" transform="translate(477.148438 0)"/>
     <use xlink:href="#DejaVuSans-70" transform="translate(508.935547 0)"/>
     <use xlink:href="#DejaVuSans-46" transform="translate(572.412109 0)"/>
    </g>
   </g>
   <g id="text_5">
    <!-- $R_{HP}$ -->
    <g transform="translate(108.594 168.718594) scale(0.09 -0.09)">
     <defs>
      <path id="DejaVuSans-Oblique-52" d="M 1613 4147 
L 1294 2491 
L 2106 2491 
Q 2584 2491 2879 2755 
Q 3175 3019 3175 3444 
Q 3175 3784 2976 3965 
Q 2778 4147 2406 4147 
L 1613 4147 
z
M 2772 2241 
Q 2972 2194 3105 2009 
Q 3238 1825 3413 1275 
L 3809 0 
L 3144 0 
L 2778 1197 
Q 2638 1659 2453 1815 
Q 2269 1972 1888 1972 
L 1191 1972 
L 806 0 
L 172 0 
L 1081 4666 
L 2503 4666 
Q 3150 4666 3495 4373 
Q 3841 4081 3841 3531 
Q 3841 3044 3547 2687 
Q 3253 2331 2772 2241 
z
" transform="scale(0.015625)"/>
     </defs>
     <use xlink:href="#DejaVuSans-Oblique-52" transform="translate(0 0.09375)"/>
     <use xlink:href="#DejaVuSans-Oblique-48" transform="translate(69.482422 -16.3125) scale(0.7)"/>
     <use xlink:href="#DejaVuSans-Oblique-50" transform="translate(122.119141 -16.3125) scale(0.7)"/>
    </g>
    <!-- 100 kΩ -->
    <g transform="translate(100.089703 177.428906) scale(0.09 -0.09)">
     <defs>
      <path id="DejaVuSans-3a9" d="M 4647 556 
L 4647 0 
L 2772 0 
L 2772 556 
Q 3325 859 3634 1378 
Q 3944 1897 3944 2528 
Q 3944 3278 3531 3731 
Q 3119 4184 2444 4184 
Q 1769 4184 1355 3729 
Q 941 3275 941 2528 
Q 941 1897 1250 1378 
Q 1563 859 2119 556 
L 2119 0 
L 244 0 
L 244 556 
L 1241 556 
Q 747 991 519 1456 
Q 294 1922 294 2497 
Q 294 3491 894 4106 
Q 1491 4722 2444 4722 
Q 3391 4722 3994 4106 
Q 4594 3494 4594 2528 
Q 4594 1922 4372 1459 
Q 4150 997 3647 556 
L 4647 556 
z
" transform="scale(0.015625)"/>
     </defs>
     <use xlink:href="#DejaVuSans-31"/>
     <use xlink:href="#DejaVuSans-30" transform="translate(63.623047 0)"/>
     <use xlink:href="#DejaVuSans-30" transform="translate(127.246094 0)"/>
     <use xlink:href="#DejaVuSans-20" transform="translate(190.869141 0)"/>
     <use xlink:href="#DejaVuSans-6b" transform="translate(222.65625 0)"/>
     <use xlink:href="#DejaVuSans-3a9" transform="translate(280.566406 0)"/>
    </g>
   </g>
   <g id="text_6">
    <!-- $R_{in}$ -->
    <g transform="translate(165.789 63.097969) scale(0.09 -0.09)">
     <defs>
      <path id="DejaVuSans-Oblique-69" d="M 1172 4863 
L 1747 4863 
L 1606 4134 
L 1031 4134 
L 1172 4863 
z
M 909 3500 
L 1484 3500 
L 800 0 
L 225 0 
L 909 3500 
z
" transform="scale(0.015625)"/>
      <path id="DejaVuSans-Oblique-6e" d="M 3566 2113 
L 3156 0 
L 2578 0 
L 2988 2091 
Q 3016 2238 3031 2350 
Q 3047 2463 3047 2528 
Q 3047 2791 2881 2937 
Q 2716 3084 2419 3084 
Q 1956 3084 1622 2776 
Q 1288 2469 1184 1941 
L 800 0 
L 225 0 
L 903 3500 
L 1478 3500 
L 1363 2950 
Q 1603 3253 1940 3418 
Q 2278 3584 2650 3584 
Q 3113 3584 3367 3334 
Q 3622 3084 3622 2631 
Q 3622 2519 3608 2391 
Q 3594 2263 3566 2113 
z
" transform="scale(0.015625)"/>
     </defs>
     <use xlink:href="#DejaVuSans-Oblique-52" transform="translate(0 0.09375)"/>
     <use xlink:href="#DejaVuSans-Oblique-69" transform="translate(69.482422 -16.3125) scale(0.7)"/>
     <use xlink:href="#DejaVuSans-Oblique-6e" transform="translate(88.930664 -16.3125) scale(0.7)"/>
    </g>
    <!-- 10 kΩ -->
    <g transform="translate(158.752828 71.808281) scale(0.09 -0.09)">
     <use xlink:href="#DejaVuSans-31"/>
     <use xlink:href="#DejaVuSans-30" transform="translate(63.623047 0)"/>
     <use xlink:href="#DejaVuSans-20" transform="translate(127.246094 0)"/>
     <use xlink:href="#DejaVuSans-6b" transform="translate(159.033203 0)"/>
     <use xlink:href="#DejaVuSans-3a9" transform="translate(216.943359 0)"/>
    </g>
   </g>
   <g id="text_7">
    <!-- $R_{fb}$ 10kΩ -->
    <g transform="translate(242.379 43.008281) scale(0.09 -0.09)">
     <defs>
      <path id="DejaVuSans-Oblique-66" d="M 3059 4863 
L 2969 4384 
L 2419 4384 
Q 2106 4384 1964 4261 
Q 1822 4138 1753 3809 
L 1691 3500 
L 2638 3500 
L 2553 3053 
L 1606 3053 
L 1013 0 
L 434 0 
L 1031 3053 
L 481 3053 
L 563 3500 
L 1113 3500 
L 1159 3744 
Q 1278 4363 1576 4613 
Q 1875 4863 2516 4863 
L 3059 4863 
z
" transform="scale(0.015625)"/>
      <path id="DejaVuSans-Oblique-62" d="M 3169 2138 
Q 3169 2591 2961 2847 
Q 2753 3103 2388 3103 
Q 2122 3103 1889 2973 
Q 1656 2844 1484 2597 
Q 1303 2338 1198 1995 
Q 1094 1653 1094 1313 
Q 1094 881 1298 636 
Q 1503 391 1863 391 
Q 2134 391 2365 517 
Q 2597 644 2772 891 
Q 2950 1147 3059 1487 
Q 3169 1828 3169 2138 
z
M 1381 2969 
Q 1594 3256 1914 3420 
Q 2234 3584 2584 3584 
Q 3122 3584 3439 3221 
Q 3756 2859 3756 2241 
Q 3756 1734 3570 1259 
Q 3384 784 3041 416 
Q 2816 172 2522 40 
Q 2228 -91 1906 -91 
Q 1566 -91 1316 65 
Q 1066 222 909 531 
L 806 0 
L 231 0 
L 1178 4863 
L 1753 4863 
L 1381 2969 
z
" transform="scale(0.015625)"/>
     </defs>
     <use xlink:href="#DejaVuSans-Oblique-52" transform="translate(0 0.015625)"/>
     <use xlink:href="#DejaVuSans-Oblique-66" transform="translate(69.482422 -16.390625) scale(0.7)"/>
     <use xlink:href="#DejaVuSans-Oblique-62" transform="translate(94.125977 -16.390625) scale(0.7)"/>
     <use xlink:href="#DejaVuSans-20" transform="translate(141.293945 0.015625)"/>
     <use xlink:href="#DejaVuSans-31" transform="translate(173.081055 0.015625)"/>
     <use xlink:href="#DejaVuSans-30" transform="translate(236.704102 0.015625)"/>
     <use xlink:href="#DejaVuSans-6b" transform="translate(300.327148 0.015625)"/>
     <use xlink:href="#DejaVuSans-3a9" transform="translate(358.237305 0.015625)"/>
    </g>
   </g>
   <g id="text_8">
    <!-- $C_{fb}$ 1.5nF -->
    <g transform="translate(241.524 25.008281) scale(0.09 -0.09)">
     <defs>
      <path id="DejaVuSans-35" d="M 691 4666 
L 3169 4666 
L 3169 4134 
L 1269 4134 
L 1269 2991 
Q 1406 3038 1543 3061 
Q 1681 3084 1819 3084 
Q 2600 3084 3056 2656 
Q 3513 2228 3513 1497 
Q 3513 744 3044 326 
Q 2575 -91 1722 -91 
Q 1428 -91 1123 -41 
Q 819 9 494 109 
L 494 744 
Q 775 591 1075 516 
Q 1375 441 1709 441 
Q 2250 441 2565 725 
Q 2881 1009 2881 1497 
Q 2881 1984 2565 2268 
Q 2250 2553 1709 2553 
Q 1456 2553 1204 2497 
Q 953 2441 691 2322 
L 691 4666 
z
" transform="scale(0.015625)"/>
     </defs>
     <use xlink:href="#DejaVuSans-Oblique-43" transform="translate(0 0.78125)"/>
     <use xlink:href="#DejaVuSans-Oblique-66" transform="translate(69.824219 -15.625) scale(0.7)"/>
     <use xlink:href="#DejaVuSans-Oblique-62" transform="translate(94.467773 -15.625) scale(0.7)"/>
     <use xlink:href="#DejaVuSans-20" transform="translate(141.635742 0.78125)"/>
     <use xlink:href="#DejaVuSans-31" transform="translate(173.422852 0.78125)"/>
     <use xlink:href="#DejaVuSans-2e" transform="translate(237.045898 0.78125)"/>
     <use xlink:href="#DejaVuSans-35" transform="translate(268.833008 0.78125)"/>
     <use xlink:href="#DejaVuSans-6e" transform="translate(332.456055 0.78125)"/>
     <use xlink:href="#DejaVuSans-46" transform="translate(395.834961 0.78125)"/>
    </g>
   </g>
   <g id="text_9">
    <!-- Stage 2 -->
    <g style="fill: #0000ff" transform="translate(255.334469 67.439375) scale(0.1 -0.1)">
     <use xlink:href="#DejaVuSans-53"/>
     <use xlink:href="#DejaVuSans-74" transform="translate(63.476562 0)"/>
     <use xlink:href="#DejaVuSans-61" transform="translate(102.685547 0)"/>
     <use xlink:href="#DejaVuSans-67" transform="translate(163.964844 0)"/>
     <use xlink:href="#DejaVuSans-65" transform="translate(227.441406 0)"/>
     <use xlink:href="#DejaVuSans-20" transform="translate(288.964844 0)"/>
     <use xlink:href="#DejaVuSans-32" transform="translate(320.751953 0)"/>
    </g>
   </g>
   <g id="text_10">
    <!-- $C_{HP}$ -->
    <g transform="translate(398.394 63.097969) scale(0.09 -0.09)">
     <use xlink:href="#DejaVuSans-Oblique-43" transform="translate(0 0.78125)"/>
     <use xlink:href="#DejaVuSans-Oblique-48" transform="translate(69.824219 -15.625) scale(0.7)"/>
     <use xlink:href="#DejaVuSans-Oblique-50" transform="translate(122.460938 -15.625) scale(0.7)"/>
    </g>
    <!-- 470000.0 pF -->
    <g transform="translate(377.606812 71.808281) scale(0.09 -0.09)">
     <use xlink:href="#DejaVuSans-34"/>
     <use xlink:href="#DejaVuSans-37" transform="translate(63.623047 0)"/>
     <use xlink:href="#DejaVuSans-30" transform="translate(127.246094 0)"/>
     <use xlink:href="#DejaVuSans-30" transform="translate(190.869141 0)"/>
     <use xlink:href="#DejaVuSans-30" transform="translate(254.492188 0)"/>
     <use xlink:href="#DejaVuSans-30" transform="translate(318.115234 0)"/>
     <use xlink:href="#DejaVuSans-2e" transform="translate(381.738281 0)"/>
     <use xlink:href="#DejaVuSans-30" transform="translate(413.525391 0)"/>
     <use xlink:href="#DejaVuSans-20" transform="translate(477.148438 0)"/>
     <use xlink:href="#DejaVuSans-70" transform="translate(508.935547 0)"/>
     <use xlink:href="#DejaVuSans-46" transform="translate(572.412109 0)"/>
    </g>
   </g>
   <g id="text_11">
    <!-- $R_{HP}$ -->
    <g transform="translate(443.394 168.718594) scale(0.09 -0.09)">
     <use xlink:href="#DejaVuSans-Oblique-52" transform="translate(0 0.09375)"/>
     <use xlink:href="#DejaVuSans-Oblique-48" transform="translate(69.482422 -16.3125) scale(0.7)"/>
     <use xlink:href="#DejaVuSans-Oblique-50" transform="translate(122.119141 -16.3125) scale(0.7)"/>
    </g>
    <!-- 100 kΩ -->
    <g transform="translate(434.889703 177.428906) scale(0.09 -0.09)">
     <use xlink:href="#DejaVuSans-31"/>
     <use xlink:href="#DejaVuSans-30" transform="translate(63.623047 0)"/>
     <use xlink:href="#DejaVuSans-30" transform="translate(127.246094 0)"/>
     <use xlink:href="#DejaVuSans-20" transform="translate(190.869141 0)"/>
     <use xlink:href="#DejaVuSans-6b" transform="translate(222.65625 0)"/>
     <use xlink:href="#DejaVuSans-3a9" transform="translate(280.566406 0)"/>
    </g>
   </g>
   <g id="text_12">
    <!-- $R_{in}$ -->
    <g transform="translate(500.589 63.097969) scale(0.09 -0.09)">
     <use xlink:href="#DejaVuSans-Oblique-52" transform="translate(0 0.09375)"/>
     <use xlink:href="#DejaVuSans-Oblique-69" transform="translate(69.482422 -16.3125) scale(0.7)"/>
     <use xlink:href="#DejaVuSans-Oblique-6e" transform="translate(88.930664 -16.3125) scale(0.7)"/>
    </g>
    <!-- 10kΩ -->
    <g transform="translate(494.982984 71.808281) scale(0.09 -0.09)">
     <use xlink:href="#DejaVuSans-31"/>
     <use xlink:href="#DejaVuSans-30" transform="translate(63.623047 0)"/>
     <use xlink:href="#DejaVuSans-6b" transform="translate(127.246094 0)"/>
     <use xlink:href="#DejaVuSans-3a9" transform="translate(185.15625 0)"/>
    </g>
   </g>
   <g id="text_13">
    <!-- $R_{fb}$ 10kΩ -->
    <g transform="translate(577.179 43.008281) scale(0.09 -0.09)">
     <use xlink:href="#DejaVuSans-Oblique-52" transform="translate(0 0.015625)"/>
     <use xlink:href="#DejaVuSans-Oblique-66" transform="translate(69.482422 -16.390625) scale(0.7)"/>
     <use xlink:href="#DejaVuSans-Oblique-62" transform="translate(94.125977 -16.390625) scale(0.7)"/>
     <use xlink:href="#DejaVuSans-20" transform="translate(141.293945 0.015625)"/>
     <use xlink:href="#DejaVuSans-31" transform="translate(173.081055 0.015625)"/>
     <use xlink:href="#DejaVuSans-30" transform="translate(236.704102 0.015625)"/>
     <use xlink:href="#DejaVuSans-6b" transform="translate(300.327148 0.015625)"/>
     <use xlink:href="#DejaVuSans-3a9" transform="translate(358.237305 0.015625)"/>
    </g>
   </g>
   <g id="text_14">
    <!-- $C_{fb}$ 1.5nF -->
    <g transform="translate(576.324 25.008281) scale(0.09 -0.09)">
     <use xlink:href="#DejaVuSans-Oblique-43" transform="translate(0 0.78125)"/>
     <use xlink:href="#DejaVuSans-Oblique-66" transform="translate(69.824219 -15.625) scale(0.7)"/>
     <use xlink:href="#DejaVuSans-Oblique-62" transform="translate(94.467773 -15.625) scale(0.7)"/>
     <use xlink:href="#DejaVuSans-20" transform="translate(141.635742 0.78125)"/>
     <use xlink:href="#DejaVuSans-31" transform="translate(173.422852 0.78125)"/>
     <use xlink:href="#DejaVuSans-2e" transform="translate(237.045898 0.78125)"/>
     <use xlink:href="#DejaVuSans-35" transform="translate(268.833008 0.78125)"/>
     <use xlink:href="#DejaVuSans-6e" transform="translate(332.456055 0.78125)"/>
     <use xlink:href="#DejaVuSans-46" transform="translate(395.834961 0.78125)"/>
    </g>
   </g>
   <g id="patch_2">
    <path d="M 26.154 88.98 
C 26.870048 88.98 27.556866 88.695511 28.063188 88.189188 
C 28.569511 87.682866 28.854 86.996048 28.854 86.28 
C 28.854 85.563952 28.569511 84.877134 28.063188 84.370812 
C 27.556866 83.864489 26.870048 83.58 26.154 83.58 
C 25.437952 83.58 24.751134 83.864489 24.244812 84.370812 
C 23.738489 84.877134 23.454 85.563952 23.454 86.28 
C 23.454 86.996048 23.738489 87.682866 24.244812 88.189188 
C 24.751134 88.695511 25.437952 88.98 26.154 88.98 
z
" clip-path="url(#p13cd1fcb4a)" style="stroke: #000000; stroke-width: 2; stroke-linejoin: miter"/>
   </g>
   <g id="text_15">
    <!-- $V_{in}$ -->
    <g transform="translate(7.704 88.763437) scale(0.09 -0.09)">
     <defs>
      <path id="DejaVuSans-Oblique-56" d="M 1319 0 
L 500 4666 
L 1119 4666 
L 1797 653 
L 4063 4666 
L 4750 4666 
L 2053 0 
L 1319 0 
z
" transform="scale(0.015625)"/>
     </defs>
     <use xlink:href="#DejaVuSans-Oblique-56" transform="translate(0 0.09375)"/>
     <use xlink:href="#DejaVuSans-Oblique-69" transform="translate(68.408203 -16.3125) scale(0.7)"/>
     <use xlink:href="#DejaVuSans-Oblique-6e" transform="translate(87.856445 -16.3125) scale(0.7)"/>
    </g>
   </g>
   <g id="patch_3">
    <path d="M 116.154 88.98 
C 116.870048 88.98 117.556866 88.695511 118.063188 88.189188 
C 118.569511 87.682866 118.854 86.996048 118.854 86.28 
C 118.854 85.563952 118.569511 84.877134 118.063188 84.370812 
C 117.556866 83.864489 116.870048 83.58 116.154 83.58 
C 115.437952 83.58 114.751134 83.864489 114.244812 84.370812 
C 113.738489 84.877134 113.454 85.563952 113.454 86.28 
C 113.454 86.996048 113.738489 87.682866 114.244812 88.189188 
C 114.751134 88.695511 115.437952 88.98 116.154 88.98 
z
" clip-path="url(#p13cd1fcb4a)" style="stroke: #000000; stroke-width: 2; stroke-linejoin: miter"/>
   </g>
   <g id="patch_4">
    <path d="M 116.154 160.98 
C 116.870048 160.98 117.556866 160.695511 118.063188 160.189188 
C 118.569511 159.682866 118.854 158.996048 118.854 158.28 
C 118.854 157.563952 118.569511 156.877134 118.063188 156.370812 
C 117.556866 155.864489 116.870048 155.58 116.154 155.58 
C 115.437952 155.58 114.751134 155.864489 114.244812 156.370812 
C 113.738489 156.877134 113.454 157.563952 113.454 158.28 
C 113.454 158.996048 113.738489 159.682866 114.244812 160.189188 
C 114.751134 160.695511 115.437952 160.98 116.154 160.98 
z
" clip-path="url(#p13cd1fcb4a)" style="stroke: #000000; stroke-width: 2; stroke-linejoin: miter"/>
   </g>
   <g id="text_16">
    <!-- $V_{ref}$ 1.65V -->
    <g transform="translate(96.514 170.65875) scale(0.08 -0.08)">
     <defs>
      <path id="DejaVuSans-Oblique-72" d="M 2853 2969 
Q 2766 3016 2653 3041 
Q 2541 3066 2413 3066 
Q 1953 3066 1609 2717 
Q 1266 2369 1153 1784 
L 800 0 
L 225 0 
L 909 3500 
L 1484 3500 
L 1375 2956 
Q 1603 3259 1920 3421 
Q 2238 3584 2597 3584 
Q 2691 3584 2781 3573 
Q 2872 3563 2963 3538 
L 2853 2969 
z
" transform="scale(0.015625)"/>
      <path id="DejaVuSans-Oblique-65" d="M 3078 2063 
Q 3088 2113 3092 2166 
Q 3097 2219 3097 2272 
Q 3097 2653 2873 2875 
Q 2650 3097 2266 3097 
Q 1838 3097 1509 2826 
Q 1181 2556 1013 2059 
L 3078 2063 
z
M 3578 1613 
L 903 1613 
Q 884 1494 878 1425 
Q 872 1356 872 1306 
Q 872 872 1139 634 
Q 1406 397 1894 397 
Q 2269 397 2603 481 
Q 2938 566 3225 728 
L 3116 159 
Q 2806 34 2476 -28 
Q 2147 -91 1806 -91 
Q 1078 -91 686 257 
Q 294 606 294 1247 
Q 294 1794 489 2264 
Q 684 2734 1063 3103 
Q 1306 3334 1642 3459 
Q 1978 3584 2356 3584 
Q 2950 3584 3301 3228 
Q 3653 2872 3653 2272 
Q 3653 2128 3634 1964 
Q 3616 1800 3578 1613 
z
" transform="scale(0.015625)"/>
     </defs>
     <use xlink:href="#DejaVuSans-Oblique-56" transform="translate(0 0.78125)"/>
     <use xlink:href="#DejaVuSans-Oblique-72" transform="translate(68.408203 -15.625) scale(0.7)"/>
     <use xlink:href="#DejaVuSans-Oblique-65" transform="translate(97.1875 -15.625) scale(0.7)"/>
     <use xlink:href="#DejaVuSans-Oblique-66" transform="translate(140.253906 -15.625) scale(0.7)"/>
     <use xlink:href="#DejaVuSans-20" transform="translate(167.631836 0.78125)"/>
     <use xlink:href="#DejaVuSans-31" transform="translate(199.418945 0.78125)"/>
     <use xlink:href="#DejaVuSans-2e" transform="translate(263.041992 0.78125)"/>
     <use xlink:href="#DejaVuSans-36" transform="translate(294.829102 0.78125)"/>
     <use xlink:href="#DejaVuSans-35" transform="translate(358.452148 0.78125)"/>
     <use xlink:href="#DejaVuSans-56" transform="translate(422.075195 0.78125)"/>
    </g>
   </g>
   <g id="patch_5">
    <path d="M 216.954 88.98 
C 217.670048 88.98 218.356866 88.695511 218.863188 88.189188 
C 219.369511 87.682866 219.654 86.996048 219.654 86.28 
C 219.654 85.563952 219.369511 84.877134 218.863188 84.370812 
C 218.356866 83.864489 217.670048 83.58 216.954 83.58 
C 216.237952 83.58 215.551134 83.864489 215.044812 84.370812 
C 214.538489 84.877134 214.254 85.563952 214.254 86.28 
C 214.254 86.996048 214.538489 87.682866 215.044812 88.189188 
C 215.551134 88.695511 216.237952 88.98 216.954 88.98 
z
" clip-path="url(#p13cd1fcb4a)" style="stroke: #000000; stroke-width: 2; stroke-linejoin: miter"/>
   </g>
   <g id="patch_6">
    <path d="M 306.954 88.98 
C 307.670048 88.98 308.356866 88.695511 308.863188 88.189188 
C 309.369511 87.682866 309.654 86.996048 309.654 86.28 
C 309.654 85.563952 309.369511 84.877134 308.863188 84.370812 
C 308.356866 83.864489 307.670048 83.58 306.954 83.58 
C 306.237952 83.58 305.551134 83.864489 305.044812 84.370812 
C 304.538489 84.877134 304.254 85.563952 304.254 86.28 
C 304.254 86.996048 304.538489 87.682866 305.044812 88.189188 
C 305.551134 88.695511 306.237952 88.98 306.954 88.98 
z
" clip-path="url(#p13cd1fcb4a)" style="stroke: #000000; stroke-width: 2; stroke-linejoin: miter"/>
   </g>
   <g id="text_17">
    <!-- bpf1_out -->
    <g style="fill: #0000ff" transform="translate(291.569313 97.898906) scale(0.07 -0.07)">
     <defs>
      <path id="DejaVuSans-66" d="M 2375 4863 
L 2375 4384 
L 1825 4384 
Q 1516 4384 1395 4259 
Q 1275 4134 1275 3809 
L 1275 3500 
L 2222 3500 
L 2222 3053 
L 1275 3053 
L 1275 0 
L 697 0 
L 697 3053 
L 147 3053 
L 147 3500 
L 697 3500 
L 697 3744 
Q 697 4328 969 4595 
Q 1241 4863 1831 4863 
L 2375 4863 
z
" transform="scale(0.015625)"/>
      <path id="DejaVuSans-5f" d="M 3263 -1063 
L 3263 -1509 
L -63 -1509 
L -63 -1063 
L 3263 -1063 
z
" transform="scale(0.015625)"/>
      <path id="DejaVuSans-6f" d="M 1959 3097 
Q 1497 3097 1228 2736 
Q 959 2375 959 1747 
Q 959 1119 1226 758 
Q 1494 397 1959 397 
Q 2419 397 2687 759 
Q 2956 1122 2956 1747 
Q 2956 2369 2687 2733 
Q 2419 3097 1959 3097 
z
M 1959 3584 
Q 2709 3584 3137 3096 
Q 3566 2609 3566 1747 
Q 3566 888 3137 398 
Q 2709 -91 1959 -91 
Q 1206 -91 779 398 
Q 353 888 353 1747 
Q 353 2609 779 3096 
Q 1206 3584 1959 3584 
z
" transform="scale(0.015625)"/>
      <path id="DejaVuSans-75" d="M 544 1381 
L 544 3500 
L 1119 3500 
L 1119 1403 
Q 1119 906 1312 657 
Q 1506 409 1894 409 
Q 2359 409 2629 706 
Q 2900 1003 2900 1516 
L 2900 3500 
L 3475 3500 
L 3475 0 
L 2900 0 
L 2900 538 
Q 2691 219 2414 64 
Q 2138 -91 1772 -91 
Q 1169 -91 856 284 
Q 544 659 544 1381 
z
M 1991 3584 
L 1991 3584 
z
" transform="scale(0.015625)"/>
     </defs>
     <use xlink:href="#DejaVuSans-62"/>
     <use xlink:href="#DejaVuSans-70" transform="translate(63.476562 0)"/>
     <use xlink:href="#DejaVuSans-66" transform="translate(126.953125 0)"/>
     <use xlink:href="#DejaVuSans-31" transform="translate(162.158203 0)"/>
     <use xlink:href="#DejaVuSans-5f" transform="translate(225.78125 0)"/>
     <use xlink:href="#DejaVuSans-6f" transform="translate(275.78125 0)"/>
     <use xlink:href="#DejaVuSans-75" transform="translate(336.962891 0)"/>
     <use xlink:href="#DejaVuSans-74" transform="translate(400.341797 0)"/>
    </g>
   </g>
   <g id="patch_7">
    <path d="M 249.354 43.98 
C 250.070048 43.98 250.756866 43.695511 251.263188 43.189188 
C 251.769511 42.682866 252.054 41.996048 252.054 41.28 
C 252.054 40.563952 251.769511 39.877134 251.263188 39.370812 
C 250.756866 38.864489 250.070048 38.58 249.354 38.58 
C 248.637952 38.58 247.951134 38.864489 247.444812 39.370812 
C 246.938489 39.877134 246.654 40.563952 246.654 41.28 
C 246.654 41.996048 246.938489 42.682866 247.444812 43.189188 
C 247.951134 43.695511 248.637952 43.98 249.354 43.98 
z
" clip-path="url(#p13cd1fcb4a)" style="stroke: #000000; stroke-width: 2; stroke-linejoin: miter"/>
   </g>
   <g id="text_18">
    <!-- $V_{ref}$ -->
    <g transform="translate(229.614 43.4875) scale(0.08 -0.08)">
     <use xlink:href="#DejaVuSans-Oblique-56" transform="translate(0 0.09375)"/>
     <use xlink:href="#DejaVuSans-Oblique-72" transform="translate(68.408203 -16.3125) scale(0.7)"/>
     <use xlink:href="#DejaVuSans-Oblique-65" transform="translate(97.1875 -16.3125) scale(0.7)"/>
     <use xlink:href="#DejaVuSans-Oblique-66" transform="translate(140.253906 -16.3125) scale(0.7)"/>
    </g>
   </g>
   <g id="patch_8">
    <path d="M 450.954 88.98 
C 451.670048 88.98 452.356866 88.695511 452.863188 88.189188 
C 453.369511 87.682866 453.654 86.996048 453.654 86.28 
C 453.654 85.563952 453.369511 84.877134 452.863188 84.370812 
C 452.356866 83.864489 451.670048 83.58 450.954 83.58 
C 450.237952 83.58 449.551134 83.864489 449.044812 84.370812 
C 448.538489 84.877134 448.254 85.563952 448.254 86.28 
C 448.254 86.996048 448.538489 87.682866 449.044812 88.189188 
C 449.551134 88.695511 450.237952 88.98 450.954 88.98 
z
" clip-path="url(#p13cd1fcb4a)" style="stroke: #000000; stroke-width: 2; stroke-linejoin: miter"/>
   </g>
   <g id="patch_9">
    <path d="M 450.954 160.98 
C 451.670048 160.98 452.356866 160.695511 452.863188 160.189188 
C 453.369511 159.682866 453.654 158.996048 453.654 158.28 
C 453.654 157.563952 453.369511 156.877134 452.863188 156.370812 
C 452.356866 155.864489 451.670048 155.58 450.954 155.58 
C 450.237952 155.58 449.551134 155.864489 449.044812 156.370812 
C 448.538489 156.877134 448.254 157.563952 448.254 158.28 
C 448.254 158.996048 448.538489 159.682866 449.044812 160.189188 
C 449.551134 160.695511 450.237952 160.98 450.954 160.98 
z
" clip-path="url(#p13cd1fcb4a)" style="stroke: #000000; stroke-width: 2; stroke-linejoin: miter"/>
   </g>
   <g id="text_19">
    <!-- $V_{ref}$ -->
    <g transform="translate(444.234 170.65875) scale(0.08 -0.08)">
     <use xlink:href="#DejaVuSans-Oblique-56" transform="translate(0 0.09375)"/>
     <use xlink:href="#DejaVuSans-Oblique-72" transform="translate(68.408203 -16.3125) scale(0.7)"/>
     <use xlink:href="#DejaVuSans-Oblique-65" transform="translate(97.1875 -16.3125) scale(0.7)"/>
     <use xlink:href="#DejaVuSans-Oblique-66" transform="translate(140.253906 -16.3125) scale(0.7)"/>
    </g>
   </g>
   <g id="patch_10">
    <path d="M 551.754 88.98 
C 552.470048 88.98 553.156866 88.695511 553.663188 88.189188 
C 554.169511 87.682866 554.454 86.996048 554.454 86.28 
C 554.454 85.563952 554.169511 84.877134 553.663188 84.370812 
C 553.156866 83.864489 552.470048 83.58 551.754 83.58 
C 551.037952 83.58 550.351134 83.864489 549.844812 84.370812 
C 549.338489 84.877134 549.054 85.563952 549.054 86.28 
C 549.054 86.996048 549.338489 87.682866 549.844812 88.189188 
C 550.351134 88.695511 551.037952 88.98 551.754 88.98 
z
" clip-path="url(#p13cd1fcb4a)" style="stroke: #000000; stroke-width: 2; stroke-linejoin: miter"/>
   </g>
   <g id="patch_11">
    <path d="M 641.754 88.98 
C 642.470048 88.98 643.156866 88.695511 643.663188 88.189188 
C 644.169511 87.682866 644.454 86.996048 644.454 86.28 
C 644.454 85.563952 644.169511 84.877134 643.663188 84.370812 
C 643.156866 83.864489 642.470048 83.58 641.754 83.58 
C 641.037952 83.58 640.351134 83.864489 639.844812 84.370812 
C 639.338489 84.877134 639.054 85.563952 639.054 86.28 
C 639.054 86.996048 639.338489 87.682866 639.844812 88.189188 
C 640.351134 88.695511 641.037952 88.98 641.754 88.98 
z
" clip-path="url(#p13cd1fcb4a)" style="stroke: #000000; stroke-width: 2; stroke-linejoin: miter"/>
   </g>
   <g id="text_20">
    <!-- bpf_out -->
    <g style="fill: #0000ff" transform="translate(648.054 88.114219) scale(0.07 -0.07)">
     <use xlink:href="#DejaVuSans-62"/>
     <use xlink:href="#DejaVuSans-70" transform="translate(63.476562 0)"/>
     <use xlink:href="#DejaVuSans-66" transform="translate(126.953125 0)"/>
     <use xlink:href="#DejaVuSans-5f" transform="translate(162.158203 0)"/>
     <use xlink:href="#DejaVuSans-6f" transform="translate(212.158203 0)"/>
     <use xlink:href="#DejaVuSans-75" transform="translate(273.339844 0)"/>
     <use xlink:href="#DejaVuSans-74" transform="translate(336.71875 0)"/>
    </g>
   </g>
   <g id="patch_12">
    <path d="M 584.154 43.98 
C 584.870048 43.98 585.556866 43.695511 586.063188 43.189188 
C 586.569511 42.682866 586.854 41.996048 586.854 41.28 
C 586.854 40.563952 586.569511 39.877134 586.063188 39.370812 
C 585.556866 38.864489 584.870048 38.58 584.154 38.58 
C 583.437952 38.58 582.751134 38.864489 582.244812 39.370812 
C 581.738489 39.877134 581.454 40.563952 581.454 41.28 
C 581.454 41.996048 581.738489 42.682866 582.244812 43.189188 
C 582.751134 43.695511 583.437952 43.98 584.154 43.98 
z
" clip-path="url(#p13cd1fcb4a)" style="stroke: #000000; stroke-width: 2; stroke-linejoin: miter"/>
   </g>
   <g id="text_21">
    <!-- $V_{ref}$ -->
    <g transform="translate(564.414 43.4875) scale(0.08 -0.08)">
     <use xlink:href="#DejaVuSans-Oblique-56" transform="translate(0 0.09375)"/>
     <use xlink:href="#DejaVuSans-Oblique-72" transform="translate(68.408203 -16.3125) scale(0.7)"/>
     <use xlink:href="#DejaVuSans-Oblique-65" transform="translate(97.1875 -16.3125) scale(0.7)"/>
     <use xlink:href="#DejaVuSans-Oblique-66" transform="translate(140.253906 -16.3125) scale(0.7)"/>
    </g>
   </g>
  </g>
 </g>
 <defs>
  <clipPath id="p13cd1fcb4a">
   <rect x="0" y="0" width="676.884" height="184.56"/>
  </clipPath>
 </defs>
</svg>
